<svg width="701" height="592" viewBox="0 0 701 592" fill="none" xmlns="http://www.w3.org/2000/svg">
<path d="M124.087 386.534C116.883 419.144 86.1857 440.096 55.5218 433.333C24.858 426.57 5.8397 394.653 13.0433 362.044C20.247 329.435 50.9446 308.482 81.6085 315.245C112.272 322.008 131.291 353.925 124.087 386.534Z" fill="#EAF5EB"/>
<ellipse rx="246.231" ry="253.529" transform="matrix(0.999996 -0.00280822 0.00231387 0.999997 399.386 296.583)" fill="#EAF5EB"/>
<ellipse rx="86.2669" ry="93.659" transform="matrix(0.999996 -0.00280822 0.00231387 0.999997 409.91 289.424)" fill="#DAFADA"/>
<path d="M149.893 219.001C149.952 243.853 129.677 264.055 104.607 264.124C79.5375 264.192 59.1665 244.101 59.1072 219.249C59.048 194.397 79.323 174.195 104.393 174.126C129.462 174.058 149.834 194.149 149.893 219.001Z" fill="#EAF5EB"/>
<path d="M323.77 470.358C323.897 523.576 277.764 566.843 220.73 566.998C163.695 567.154 117.356 524.139 117.23 470.921C117.103 417.704 163.236 374.437 220.27 374.281C277.305 374.126 323.644 417.141 323.77 470.358Z" fill="#EAF5EB"/>
</svg>
