<svg width="29" height="28" viewBox="0 0 29 28" fill="none" xmlns="http://www.w3.org/2000/svg">
<path d="M26.5833 12.9267V14C26.5818 16.5158 25.7381 18.9638 24.1779 20.9788C22.6177 22.9938 20.4248 24.4679 17.926 25.1812C15.4273 25.8945 12.7566 25.8089 10.3124 24.937C7.86824 24.0651 5.78142 22.4538 4.3632 20.3432C2.94499 18.2327 2.27137 15.7361 2.44282 13.2257C2.61426 10.7153 3.62158 8.32572 5.31455 6.41326C7.00751 4.50079 9.29541 3.16795 11.837 2.61351C14.3786 2.05907 17.0378 2.31273 19.4179 3.33667" stroke="#728196" stroke-width="2" stroke-linecap="round" stroke-linejoin="round"/>
<path d="M26.5833 12.9267V14C26.5818 16.5158 25.7381 18.9638 24.1779 20.9788C22.6177 22.9938 20.4248 24.4679 17.926 25.1812C15.4273 25.8945 12.7566 25.8089 10.3124 24.937C7.86824 24.0651 5.78142 22.4538 4.3632 20.3432C2.94499 18.2327 2.27137 15.7361 2.44282 13.2257C2.61426 10.7153 3.62158 8.32572 5.31455 6.41326C7.00751 4.50079 9.29541 3.16795 11.837 2.61351C14.3786 2.05907 17.0378 2.31273 19.4179 3.33667" stroke="#728196" stroke-width="2" stroke-linecap="round" stroke-linejoin="round"/>
<path d="M26.5833 4.66675L14.5 16.3451L10.875 12.8451" stroke="#728196" stroke-width="2" stroke-linecap="round" stroke-linejoin="round"/>
</svg>
