<svg width="53" height="37" viewBox="0 0 53 37" fill="none" xmlns="http://www.w3.org/2000/svg">
<path d="M51.4167 1.01927C49.2221 2.31394 46.7923 3.30415 44.2208 3.95177C42.8407 2.6245 41.0064 1.68377 38.9661 1.2568C36.9258 0.829831 34.778 0.937232 32.8131 1.56448C30.8482 2.19172 29.161 3.30854 27.9797 4.7639C26.7985 6.21925 26.1801 7.94292 26.2083 9.70177V11.6184C22.181 11.7058 18.1904 10.9587 14.5919 9.44388C10.9934 7.92901 7.89864 5.69333 5.58333 2.93594C5.58333 2.93594 -3.58333 20.1859 17.0417 27.8526C12.322 30.532 6.69973 31.8756 1 31.6859C21.625 41.2693 46.8333 31.6859 46.8333 9.64427C46.8312 9.11039 46.7698 8.57783 46.65 8.05344C48.9889 6.1243 50.6394 3.68864 51.4167 1.01927Z" stroke="#008000" stroke-width="2" stroke-linecap="round" stroke-linejoin="round"/>
</svg>
