<svg width="97" height="88" viewBox="0 0 97 88" fill="none" xmlns="http://www.w3.org/2000/svg">
<ellipse cx="48.5" cy="44" rx="48.5" ry="44" fill="#EAF5EB"/>
<path d="M70.625 40.5833C70.625 54.2916 48.5 66.0416 48.5 66.0416C48.5 66.0416 26.375 54.2916 26.375 40.5833C26.375 35.9089 28.706 31.4259 32.8553 28.1206C37.0045 24.8152 42.6321 22.9583 48.5 22.9583C54.3679 22.9583 59.9955 24.8152 64.1447 28.1206C68.294 31.4259 70.625 35.9089 70.625 40.5833Z" stroke="#008000" stroke-width="2" stroke-linecap="round" stroke-linejoin="round"/>
<path d="M48.5 46.4583C52.5731 46.4583 55.875 43.828 55.875 40.5833C55.875 37.3386 52.5731 34.7083 48.5 34.7083C44.4269 34.7083 41.125 37.3386 41.125 40.5833C41.125 43.828 44.4269 46.4583 48.5 46.4583Z" stroke="#008000" stroke-width="2" stroke-linecap="round" stroke-linejoin="round"/>
</svg>
