<svg width="53" height="38" viewBox="0 0 53 38" fill="none" xmlns="http://www.w3.org/2000/svg">
<path d="M37.5417 3.1665H15.4584C9.36021 3.1665 4.41669 6.71092 4.41669 11.0832V26.9165C4.41669 31.2888 9.36021 34.8332 15.4584 34.8332H37.5417C43.6398 34.8332 48.5834 31.2888 48.5834 26.9165V11.0832C48.5834 6.71092 43.6398 3.1665 37.5417 3.1665Z" stroke="#008000" stroke-width="2" stroke-linecap="round" stroke-linejoin="round"/>
<path d="M35.3333 18.0025C35.6059 19.3202 35.2919 20.666 34.4362 21.8484C33.5805 23.0309 32.2265 23.9897 30.5669 24.5886C28.9073 25.1876 27.0266 25.396 25.1922 25.1844C23.3578 24.9727 21.6632 24.3518 20.3494 23.4098C19.0357 22.4679 18.1696 21.2529 17.8744 19.9377C17.5792 18.6224 17.87 17.274 18.7053 16.0841C19.5406 14.8942 20.878 13.9234 22.5272 13.3099C24.1764 12.6963 26.0534 12.4713 27.8913 12.6667C29.766 12.866 31.5015 13.4923 32.8417 14.4531C34.1818 15.414 35.0553 16.6584 35.3333 18.0025Z" stroke="#008000" stroke-width="2" stroke-linecap="round" stroke-linejoin="round"/>
<path d="M38.6458 10.2915H38.6679" stroke="#008000" stroke-width="2" stroke-linecap="round" stroke-linejoin="round"/>
</svg>
