<svg width="97" height="88" viewBox="0 0 97 88" fill="none" xmlns="http://www.w3.org/2000/svg">
<ellipse cx="48.5" cy="44" rx="48.5" ry="44" fill="#EAF5EB"/>
<path d="M48.5 21.0833V66.9166" stroke="#008000" stroke-width="2" stroke-linecap="round" stroke-linejoin="round"/>
<path d="M57.875 29.4167H43.8125C42.072 29.4167 40.4028 30.1849 39.1721 31.5524C37.9414 32.9198 37.25 34.7745 37.25 36.7084C37.25 38.6422 37.9414 40.4969 39.1721 41.8643C40.4028 43.2318 42.072 44 43.8125 44H53.1875C54.928 44 56.5972 44.7683 57.8279 46.1357C59.0586 47.5032 59.75 49.3578 59.75 51.2917C59.75 53.2256 59.0586 55.0802 57.8279 56.4477C56.5972 57.8151 54.928 58.5834 53.1875 58.5834H37.25" stroke="#008000" stroke-width="2" stroke-linecap="round" stroke-linejoin="round"/>
</svg>
