<svg width="553" height="483" viewBox="0 0 553 483" fill="none" xmlns="http://www.w3.org/2000/svg">
<path fill-rule="evenodd" clip-rule="evenodd" d="M398.361 355.256C395.924 358.534 392.325 360.968 389.564 363.965C386.664 367.114 383.517 369.866 380.629 372.976C367.888 354.862 350.434 343.755 335.315 328.724C328.147 321.597 322.865 311.931 319.001 302.011C317.019 296.925 315.556 291.691 314.41 286.273C313.894 283.833 313.39 281.401 313.053 278.927C312.644 275.932 312.538 275.676 310.801 273.338C310.053 272.332 308.605 269.392 307.14 269.716C305.907 269.989 303.652 274.354 302.873 275.433C299.126 280.619 295.494 285.962 291.549 290.948C285.515 298.576 280.02 306.082 274.417 314.167C262.955 330.708 250.591 346.279 238.114 361.844C237.189 362.998 235.031 366.383 233.702 366.838C232.085 367.391 229.458 365.084 227.83 363.795C223.901 360.683 220.804 356.832 217.444 352.975C210.889 345.448 206.451 334.883 203.465 324.831C201.677 318.814 200.515 312.577 198.67 306.581C197.901 304.081 196.159 301.01 197.044 298.833C197.307 298.184 198.984 296.46 199.575 296.328C200.274 296.172 201.44 297.287 201.683 297.21C204.003 296.471 202.716 293.646 204.096 292.126C204.878 291.264 208.858 291.39 210.046 290.916C214.39 289.183 218.287 285.876 222.393 283.902C239.585 275.64 256.986 267.603 271.827 254.111C275.676 250.613 278.234 247.984 282.827 245.722C287.468 243.437 292.133 241.399 296.869 239.405C301.047 237.645 305.248 235.996 309.564 234.735C314.232 233.371 320.852 231.642 325.516 233.399C334.674 236.848 337.631 245.625 341.278 254.885C346.212 267.412 352.178 279.267 358.645 290.798C371.087 312.983 386.219 332.891 398.361 355.256Z" fill="#008000"/>
<path fill-rule="evenodd" clip-rule="evenodd" d="M122.564 159.125C122.06 158.828 118.126 160.691 117.465 160.975C114.828 162.114 112.343 164.006 109.858 165.545C111.762 168.241 113.668 170.938 115.572 173.635C117.438 168.308 119.838 163.913 122.564 159.125ZM123.863 192.267C123.215 192.352 128.686 207.645 129.325 209.363C131.65 215.608 134.091 221.793 136.446 228.023C138.729 234.06 141.624 239.614 144.541 245.254C147.035 250.077 149.602 257.562 153.365 261.134C150.989 248.872 151.302 234.772 144.486 224.476C137.421 213.802 130.436 203.379 123.863 192.267ZM398.361 355.802C387.804 336.355 374.588 319.151 363.579 300.051C357.415 289.356 351.415 278.525 346.226 267.141C342.452 258.86 340.106 247.045 334.277 240.714C331.708 237.925 328.963 235.195 325.516 233.945C320.799 232.235 314.303 233.93 309.565 235.282C300.734 237.8 292.107 241.712 283.742 245.82C275.258 249.986 268.019 257.47 260.353 263.482C252.13 269.933 243.229 274.632 234.015 278.746C225.993 282.328 218.857 287.47 210.877 291.075C209.287 291.794 206.042 291.688 204.708 292.625C203.271 293.634 203.837 296.612 202.092 297.711C201.305 298.207 201.043 296.41 200.438 296.439C199.699 296.475 199.025 297.484 198.313 298.123C195.413 300.726 197.19 302.461 198.338 306.043C202.081 317.712 204.092 329.584 209.348 340.6C213.668 349.655 219.852 357.769 227.133 363.763C228.24 364.676 231.851 368.211 233.15 367.975C234.321 367.764 236.702 364.145 237.51 363.163C241.176 358.703 244.527 353.905 248.191 349.438C253.853 342.535 259.304 335.446 264.799 328.449C271.177 320.326 276.823 311.121 282.568 302.442C285.21 298.449 288.612 295.197 291.55 291.494C295.5 286.516 299.126 281.164 302.874 275.979C304.007 274.41 305.906 270.396 307.668 270.443C308.902 270.477 311.079 273.858 311.724 274.917C314.124 278.856 314.114 285.968 315.307 290.884C318.22 302.872 323.471 314.58 330.673 323.831C337.835 333.03 347.01 339.572 355.481 346.966C364.658 354.977 373.351 363.175 380.629 373.523C383.517 370.412 386.664 367.66 389.564 364.512C392.326 361.514 395.924 359.081 398.361 355.802ZM262.465 410.82C264.518 410.845 267.993 412.313 269.829 411.429C264.383 404.419 259.382 398.405 252.491 393.267C245.34 387.936 238.213 382.653 231.268 376.967C217.272 365.507 206.977 351.917 201.131 332.834C199.625 327.919 198.617 322.765 197.514 317.713C196.92 314.993 195.738 302.264 193.732 301.165C192.543 300.514 183.598 307.828 182.18 308.739C178.866 310.871 175.54 312.524 172.114 314.192C164.749 317.779 157.157 320.515 149.348 322.799C139.985 325.537 133.608 321.007 127.808 312.446C121.227 302.734 115.759 291.777 109.742 281.578C107.006 276.939 104.74 272.308 102.719 267.191C101.397 263.843 96.1516 254.811 97.964 251.244C103.134 255.823 104.995 264.929 108.517 271.06C112.907 278.701 117.854 285.906 122.266 293.54C125.977 299.96 129.762 307.739 135.244 312.354C140.066 316.413 144.647 315.165 149.836 313.341C156.126 311.13 162.645 310.041 168.809 307.299C175.479 304.332 181.791 300.123 188.299 296.691C191.333 295.09 194.965 294.181 197.824 292.186C200.288 290.467 199.921 289.56 200.102 285.9C200.313 281.63 200.557 277.357 200.719 273.084C200.828 270.213 199.493 266.319 200.399 264.176C193.01 265.666 185.789 267.662 178.452 269.427C174.435 270.394 170.562 271.589 166.504 272.348C164.957 272.638 162.843 272.63 161.458 273.413C160.353 273.044 159.789 273.279 159.768 274.117C159.715 274.572 159.631 275.021 159.516 275.462C157.251 276.661 155.933 274.089 153.968 271.623C151.543 268.579 149.728 265.151 147.949 261.574C143.971 253.577 139.387 246.055 135.706 237.832C131.955 229.451 128.908 220.476 125.727 211.78C122.809 203.801 120.941 195.173 117.716 187.383C116.277 183.906 114.454 181.031 112.324 178.093C110.567 175.67 107.863 170.441 105.239 169.327C104.545 169.033 102.728 169.528 101.939 169.462C100.368 169.332 98.968 168.661 97.3602 168.808C93.879 169.125 90.0838 171.685 87.3019 173.937C89.0997 175.801 93.5968 178.066 90.3665 181.424C87.2318 184.684 85.5004 178.837 84.3042 176.275C78.6713 181.655 79.4854 189.074 78.8348 196.677C78.4948 200.646 77.6008 204.555 77.024 208.464C76.6086 211.278 76.8999 214.188 76.7812 217.061C76.4785 224.361 75.8478 231.348 75.8775 238.546C75.9109 246.24 76.3615 253.669 76.8908 261.307C77.7815 274.166 79.8227 287.029 81.573 299.786C82.5576 306.956 83.9054 313.923 85.2138 320.978C86.6987 328.984 89.4455 336.568 90.986 344.554C92.5555 342.233 93.736 342.222 96.2746 342.529C98.2272 342.766 99.5389 342.225 99.4245 345.378C99.3506 347.423 97.7999 348.984 96.0842 349.342C93.8466 349.807 93.0864 348.508 91.9334 346.537C91.6636 350.27 93.8218 354.173 94.6754 357.819C95.4831 361.274 96.0183 364.661 97.3758 367.968C98.7004 371.194 99.8346 374.376 101.175 377.571C101.792 379.041 102.369 380.534 102.994 382C103.309 382.743 103.681 383.766 104.152 384.391C105.257 385.858 105.081 385.148 106.374 385.983C109.192 387.804 108.134 387.35 108.2 391.11C108.264 394.818 109.899 397.543 112.52 399.627C118.083 404.051 123.569 405.281 129.892 407.516C135.784 409.598 141.99 411.385 148.229 411.344C155.87 411.295 163.41 410.129 171.051 410.011C179.481 409.881 187.992 409.935 196.404 410.274C199.87 410.413 203.088 410.592 206.434 411.622C210.319 412.818 214.078 412.344 218.082 412.162C226.626 411.776 235.463 411.007 243.895 410.938C249.966 410.887 256.371 410.395 262.465 410.82ZM483.998 414.673C485.517 415.606 488.921 415.223 490.448 414.964C493.138 414.508 493.426 413.267 495.133 410.478C498.07 405.673 500.455 401.072 502.183 395.507C505.49 384.855 506.841 373.958 508.293 362.816C509.906 350.435 506.959 337.602 505.905 325.306C505.663 322.485 505.332 319.689 504.949 316.889C504.719 315.215 504.659 309.521 503.712 308.072C501.893 305.288 493.433 307.533 490.107 307.786C480.822 308.491 471.476 308.656 462.196 308.778C457.248 308.844 452.272 309.085 447.373 309.129C445.123 309.15 442.924 309.02 440.665 308.765C439.91 308.681 439.173 308.478 438.412 308.43C435.807 308.262 436.003 307.823 435.329 310.506C434.15 315.207 435.057 321.187 434.748 326.067C434.333 332.586 434.109 339.198 434.212 345.732C434.307 351.77 434.13 357.794 434.324 363.845C434.405 366.351 434.64 368.394 435.208 370.787C435.851 373.493 436.557 379.814 438.158 381.686C438.339 381.9 439.7 381.403 440.061 381.934C440.617 382.751 440.515 384.482 440.897 385.01C442.133 386.721 444.688 386.857 446.541 387.626C451.626 389.735 456.291 392.025 461.084 394.87C465.367 397.411 472.271 399.574 474.846 404.587C476.027 406.886 476.186 409.917 477.271 412.288C478.507 414.989 476.034 413.577 479.063 414.673C480.427 415.166 482.6 414.673 483.998 414.673ZM32.5268 384.121C32.1416 390.359 29.1206 396.301 28.069 402.434C27.577 405.306 26.7423 408.129 26.1639 410.984C25.6092 413.723 23.6053 416.967 23.8082 419.677C31.2044 416.611 38.696 415.841 46.4261 415.014C53.7527 414.23 61.4925 413.918 68.7576 413.915C76.1607 413.91 84.0765 413.069 91.6992 412.939C99.6711 412.802 107.763 412.562 115.62 411.6C111.512 408.061 106.371 404.737 103.338 399.813C100.04 394.46 98.3276 387.753 95.4259 382.104C89.6031 370.769 85.9012 356.703 82.849 343.968C76.6868 318.259 69.8005 293.024 68.1409 266.358C64.9823 268.239 62.4751 275.539 60.8936 279.174C58.8752 283.816 57.8182 288.847 56.506 293.78C53.804 303.941 51.9339 314.476 48.6254 324.54C42.3018 343.778 38.2374 364.508 32.5268 384.121ZM434.012 234.283C435.38 245.781 438.248 257.428 438.358 269.065C438.383 271.625 438.01 274.468 438.468 276.992C438.958 279.687 440.552 282.07 441.472 284.631C442.932 288.697 446.629 297.031 443.063 300.476C442.991 297.206 440.419 293.054 439.123 290.196C437.171 285.888 434.605 281.95 432.489 277.749C428.058 268.957 423.093 260.352 417.383 252.601C411.821 245.051 405.411 238.353 399.513 231.164C397.742 229.004 383.527 208.212 382.962 208.503C387.371 228.282 394.866 245.491 405.124 262.052C410.153 270.17 416.189 275.513 422.311 282.39C427.409 288.118 437.018 294.243 435.255 303.628C443.225 302.736 451.142 301.312 459.184 301.312C457.862 289.472 456.849 277.819 454.488 266.174C451.808 252.95 449.992 239.331 447.724 225.99C445.409 212.371 441.483 199.186 439.04 185.592C436.701 172.575 434.692 159.581 432.977 146.419C431.561 153.712 432.083 161.722 431.581 169.164C431.067 176.766 431.117 184.229 431.288 191.876C431.604 206.079 432.906 220.112 434.012 234.283ZM468.547 166.563C468.591 160.483 469.604 154.485 469.917 148.42C470.013 146.559 471.606 133.863 470.12 133.2C468.898 136.299 468.613 140.265 467.503 143.517C466.394 146.765 464.911 149.86 463.847 153.131C461.542 160.218 460.747 168.237 460.499 175.771C459.937 192.812 459.647 209.815 460.632 226.856C461.053 234.161 461.377 241.478 461.262 248.797C461.135 256.85 460.075 263.84 461.362 271.827C462.637 279.736 463.437 287.613 463.862 295.638C464.16 301.27 464.279 300.872 468.899 300.476C472.234 300.189 475.602 300.495 478.942 300.317C477.38 278.365 477.125 256.368 474.631 234.5C473.358 223.344 473.324 212.027 471.743 200.912C470.957 195.391 469.639 189.981 468.882 184.453C468.069 178.518 468.469 172.543 468.547 166.563ZM130.73 152.748C139.624 153.644 149.084 156.737 158.199 154.695C156.697 153.987 152.764 153.01 154.534 150.216C156.334 147.375 159.366 150.979 161.16 150.606C162.267 150.377 164.712 144.996 165.394 143.882C166.942 141.35 167.129 140.909 169.912 140.26C172.609 139.632 173.22 140.312 173.562 137.193C173.954 133.607 172.887 129.575 172.993 125.908C173.22 118.013 175.41 111.09 177.448 103.662C168.79 105.853 160.324 108.451 151.471 109.863C147.686 110.467 141.799 111.86 138.361 108.867C137.467 108.089 137.61 107.038 136.878 106.136C135.651 104.623 133.375 103.058 131.635 102.627C120.927 99.9749 119.882 117.732 125.248 124.377C126.592 126.042 128.463 126.864 129.839 128.39C131.676 130.425 131.827 132.568 132.095 135.674C132.598 141.499 131.915 147.346 129.779 152.674L130.73 152.748ZM260.678 236.58C263.839 237.278 267.139 237.119 270.308 237.714C271.434 237.926 274.81 238.664 275.8 237.898C277.312 236.729 277.849 232.441 278.564 230.443C279.821 226.931 281.6 223.866 282.799 220.29C287.698 205.68 292.267 191.011 298.192 176.9C295.921 176.214 294.177 176.187 291.888 175.832C289.504 175.462 287.343 173.822 285.068 173.118C282.906 172.448 280.641 172.619 278.499 171.84C277.319 171.411 276.306 170.458 275.143 170.124C273.289 169.594 271.124 169.284 270.022 170.7C268.891 172.152 268.495 176.135 267.88 178.011C266.241 183.008 264.338 187.832 262.966 192.944C261.728 197.556 260.552 202.118 259.462 206.771C258.311 211.684 256.041 215.732 254.659 220.425C253.607 223.997 252.615 227.649 252.458 231.457C252.305 235.173 251.84 235.41 255.035 236.004C256.648 236.303 259.161 237.418 260.678 236.58ZM468.669 410.507C469.493 410.953 470.269 410.894 470.997 410.328C463.859 406.821 456.916 401.957 449.469 399.551C442.483 397.294 435.694 394.598 428.964 391.819C423.495 389.561 418.579 387.803 413.635 383.828C410.634 381.416 407.968 378.703 405.906 375.178C403.61 371.253 403.099 365.667 400.613 362.132C397.257 366.419 393.315 369.666 389.344 373.073C387.97 374.251 384.675 376.821 384.205 378.645C383.612 380.946 385.201 383.148 385.986 385.477C387.998 391.442 388.981 397.404 390.073 403.606C390.511 406.091 391.455 409.827 393.21 410.869C394.809 411.816 399.437 411.127 401.426 410.952C411.801 410.037 421.993 409.101 432.431 409.934C444.243 410.876 456.888 411.526 468.669 410.507ZM489.393 299.973C491.278 299.981 493.121 299.707 494.999 299.707C493.915 293.816 496.45 286.194 497.349 280.315C498.355 273.738 499.12 266.937 499.791 260.307C501.205 246.343 501.845 232.548 501.863 218.482C501.881 204.871 504.011 192.432 506.995 179.347C510.198 165.295 515.445 152.658 519.783 139.105C515.025 142.031 512.391 148.878 509.89 154.112C506.73 160.731 504.624 168.059 503.334 175.489C500.844 189.822 498.112 204.198 495.239 218.508C492.248 233.407 490.489 248.443 487.061 263.221C485.39 270.427 483.117 279.293 482.991 286.725C482.939 289.799 482.142 296.237 483.34 298.907C484.46 301.405 486.937 300.228 489.393 299.973ZM204.753 281.487C204.653 283.017 204.56 284.473 204.326 285.984C206.938 285.955 210.246 282.803 212.486 281.387C215.215 279.663 217.947 277.762 220.617 276.029C225.769 272.682 231.619 270.477 237.121 267.728C243.441 264.57 249.25 260.754 255.295 256.952C257.406 255.624 272.579 247.973 272.324 245.883C268.993 245.754 265.662 245.625 262.33 245.496C259.474 245.386 255.051 246.137 252.316 245.11C250.818 244.547 249.137 242.475 248.571 240.853C248.012 239.247 249.269 231.863 248.538 231.392C244.81 235.82 242.466 241.706 239.132 246.482C235.449 251.762 230.689 254.845 225.443 257.651C219.65 260.749 213.654 263.149 207.733 265.804C205.236 266.924 205.286 267.565 205.068 270.749C204.825 274.308 204.851 277.919 204.753 281.487ZM505.793 415.398C512.073 416.182 518.508 415.735 524.837 416.347C527.14 416.569 530.333 416.9 528.016 420.495C526.557 422.76 521.883 422.034 519.763 422.19C514.072 422.612 508.046 422.385 502.341 422.287C501.14 422.267 499.813 421.852 498.599 421.945C497.197 422.052 495.519 423.225 494.242 423.216C493.455 423.21 493.173 422.244 492.494 422.156C491.015 421.963 489.537 421.821 488.046 421.822C465.498 421.828 443.26 421.3 420.768 421.272C410.013 421.259 399.086 421.043 388.335 420.456C386.078 420.332 373.221 420.869 373.577 416.141C373.76 413.706 377.956 413.362 379.488 413.104C380.622 412.912 381.8 412.942 382.936 412.871C385.957 412.683 387.28 413.529 386.643 409.684C384.226 395.103 379.895 383.053 370.643 372.569C363.078 363.996 353.968 356.22 345.399 349.061C334.994 340.368 326.553 331.226 320.376 317.925C316.769 310.157 313.749 302.216 311.895 293.628C311.229 290.538 311.213 287.024 310.396 284.045C309.767 281.751 308.334 280.147 307.49 277.771C297.138 297.884 283.418 314.711 270.838 332.846C264.827 341.51 257.97 349.739 250.788 357.276C248.656 359.513 246.668 361.848 244.678 364.255C243.014 366.27 240.373 368.061 238.968 370.296C237.62 372.44 237.952 372.337 240.003 374.04C242.715 376.29 245.703 378.16 248.458 380.354C252.861 383.862 257.666 386.825 261.603 391.047C265.861 395.612 269.58 400.901 273.301 406.048C275.782 409.48 279.036 413.883 279.66 418.221C279.867 419.656 280.651 423.206 279.616 424.257C278.731 425.155 278.82 424.815 277.721 424.267C276.282 423.549 275.858 421.901 274.1 421.116C269.601 419.108 264.156 419.797 259.474 419.773C254.791 419.748 250.069 420.36 245.388 420.338C234.698 420.287 224.236 421.294 213.55 421.834C202.2 422.408 190.711 421.031 179.399 421.226C171.017 421.37 162.413 420.641 153.8 421.183C149.37 421.461 145.019 420.817 140.699 420.744C135.043 420.65 129.235 421.545 123.531 421.672C114.169 421.882 104.921 421.881 95.5014 422.143C75.2403 422.707 55.0886 423.289 34.8156 423.663C32.1114 423.712 29.1508 423.606 26.4785 423.96C23.642 424.336 25.1064 425.037 23.1602 426.225C17.7118 429.55 18.9701 417.226 19.1006 414.802C19.801 401.813 22.6358 389.073 26.0425 376.741C29.2744 365.045 31.8982 352.804 34.6354 340.855C37.6315 327.777 41.5351 315.235 45.08 302.286C48.7122 289.016 51.6695 275.23 58.2666 263.467C59.7692 260.789 61.322 257.906 63.7392 256.217C66.4488 254.323 66.5654 255.429 66.5632 251.964C66.5616 248.701 66.7343 244.34 66.0722 241.226C65.4739 238.412 65.5661 240.081 64.2189 238.06C63.1225 236.416 61.9754 235.292 61.1888 233.297C56.3566 238.996 45.2953 235.989 40.6265 231.884C34.9122 226.861 30.5596 218.386 28.9647 210.315C27.6838 203.833 29.2555 191.478 35.4226 188.361C38.4289 186.842 49.4714 185.693 49.9133 180.741C50.1409 178.185 46.2546 174.591 45.3578 172.393C43.696 168.321 42.1 162.904 41.6382 158.44C40.7361 149.728 44.1363 139.985 49.5528 134.1C59.4892 123.303 76.9722 117.763 89.7536 124.613C87.0526 112.61 85.4221 102.256 86.7823 89.7716C87.9542 79.0159 93.4096 72.9982 100.916 67.6407C113.726 58.4974 131.146 54.8885 145.793 57.5472C149.122 58.1516 152.316 59.4476 155.398 60.4788C159.875 61.977 165.235 61.478 169.462 63.912C172.528 65.6762 174.855 69.191 177.547 71.5377C180.69 74.2773 183.301 78.3663 185.485 82.1477C190.155 90.2341 188.33 105.242 184.421 113.359C183.583 115.1 182.548 116.566 181.161 117.754C179.718 118.99 177.517 119.375 176.773 120.979C174.867 125.086 176.705 133.979 176.959 138.419C177.256 143.574 175.015 147.447 169.99 147.858C167.082 148.097 166.99 146.135 165.598 150.171C164.695 152.788 163.876 155.639 162.574 158.038C159.89 162.981 154.973 162.499 150.495 162.365C145.311 162.209 140.205 161.257 135.018 160.655C136.388 165.761 140.138 169.724 142.48 174.272C145.646 180.424 147.551 185.524 148.066 192.691C148.461 198.198 147.608 202.547 144.369 206.646C143.028 208.342 141.84 208.426 142.173 210.382C142.375 211.576 144.15 213.546 144.778 214.498C146.439 217.019 148.368 219.332 149.83 222.024C155.457 232.382 157.119 248.17 157.133 260.227C157.133 260.78 157.387 261.955 157.177 262.527C157.021 262.95 155.841 264.287 155.824 264.402C155.593 265.952 156.892 268.61 158.931 268.873C161.072 269.148 164.994 267.069 166.986 266.386C170.174 265.293 173.423 264.486 176.604 263.363C181.741 261.55 186.854 260.104 192.077 258.683C194.437 258.042 196.809 257.507 199.177 256.907C201.874 256.224 203.127 254.904 204.519 258.096C205.713 260.834 204.97 261.331 207.863 259.951C210.735 258.579 213.541 256.88 216.345 255.332C221.29 252.603 227.18 250.17 231.446 246.142C238.563 239.42 241.198 228.717 248.008 221.585C249.905 219.599 251.036 219.564 252.235 216.813C253.519 213.869 254.181 210.093 254.855 206.926C256.037 201.38 256.879 195.815 257.951 190.274C259.286 183.372 262.172 177.121 264.278 170.537C265.099 167.972 265.524 164.711 266.847 162.406C267.198 161.795 267.868 161.45 268.142 160.944C269.083 159.207 269.074 158.73 269.317 156.641C270.459 146.878 275.468 152.014 280.943 154.253C283.249 155.196 294.201 161.314 290.019 165.382C295.005 167.065 302.99 166.15 302.923 174.461C302.888 178.72 300.699 183.275 299.524 187.261C298.48 190.8 297.471 194.353 296.41 197.887C294.088 205.628 291.27 213.137 289.003 220.901C287.97 224.439 287.117 228.061 285.679 231.401C284.41 234.347 281.339 237.594 280.832 240.816C294.118 234.222 306.408 224.69 321.279 225.297C327.79 225.563 333.699 228.747 337.295 235.407C341.804 243.754 344.77 253.1 349.177 261.525C365.207 292.171 384.327 320.013 401.925 349.391C403.276 351.649 405.015 353.783 405.484 356.573C405.79 358.393 405.196 360.214 405.563 361.963C406.324 365.596 410.171 370.134 412.779 372.222C417.778 376.225 425.906 381.871 432.144 381.371C428.229 370.425 428.281 358.432 428.463 346.756C428.636 335.665 429.667 324.664 430.89 313.687C431.167 311.204 431.408 308.901 432.021 306.495C432.725 303.733 433.692 303.995 431.583 301.512C428.337 297.69 424.476 294.545 421.204 290.675C414.127 282.306 406.873 275.747 401.303 265.753C396.005 256.248 390.417 246.467 386.495 236.058C382.458 225.343 380.845 213.899 378.841 202.551C378.028 197.946 375.062 192.805 375.658 187.996C376.411 181.919 378.834 186.344 379.82 189.615C382.83 199.599 389.877 208.534 395.713 216.563C402.02 225.237 409.733 232.494 416.315 240.916C423.483 250.088 428.393 260.629 434.767 270.42C434.767 258.269 431.201 245.896 429.742 233.876C428.458 223.296 428.055 212.683 427.244 202.057C425.401 177.92 426.993 153.071 429.579 129.106C430.808 117.725 430.111 106.611 430.149 95.1911C430.16 91.5565 428.867 83.1796 430.515 79.9542C433.672 73.7764 435.514 87.2849 435.674 89.299C436.628 101.297 434.916 113.161 435.791 125.107C436.705 137.582 438.688 149.708 440.376 162.039C442.204 175.39 445.181 188.441 448.031 201.536C451.023 215.286 453.54 229.322 456.867 242.961C457.764 238.674 456.505 233.407 456.256 229.041C455.901 222.792 455.208 216.542 455.148 210.277C455.052 200.292 454.985 190.122 455.471 180.183C455.949 170.387 455.805 160.123 458.388 150.685C459.613 146.205 461.411 141.835 463.17 137.616C465.34 132.413 466.107 127.368 467.309 121.834C468.338 117.095 469.845 112.48 470.531 107.646C470.957 104.64 472.147 95.7654 475.105 102.489C476.823 106.392 476.081 112.177 476.129 116.37C476.191 121.745 475.483 126.971 475.375 132.324C475.164 142.825 475.012 153.314 474.339 163.798C473.633 174.797 474.249 184.655 476.048 195.493C478.017 207.356 478.593 219.245 479.613 231.254C480.139 237.454 481.027 243.62 481.455 249.829C481.682 253.117 480.519 262.546 482.545 264.888C482.741 259.193 484.143 253.492 485.207 247.943C486.467 241.369 486.976 234.457 487.904 227.789C489.408 216.985 492.326 206.667 494.256 195.984C498.235 173.962 501.542 145.659 518.218 131.245C520.4 129.359 522.798 127.967 525.157 126.415C526.492 125.536 528.476 123.263 530.004 122.866C531.672 122.433 532.367 122.77 533.043 125.02C533.986 128.158 532.262 129.624 530.653 131.902C525.083 139.788 522.703 149.897 519.264 159.145C511.389 180.322 507.905 202.658 507.865 225.549C507.844 237.532 507.133 249.09 506.035 261C504.852 273.818 503.296 287.375 499.948 299.706C503.306 300.582 506.949 299.276 507.86 303.816C508.084 304.932 507.679 306.25 507.927 307.702C508.167 309.113 508.746 310.516 509.089 311.904C509.797 314.774 510.171 317.606 510.516 320.553C511.847 331.944 514.132 342.777 514.376 354.326C514.599 365.002 512.803 375.817 511.147 386.288C509.48 396.833 504.697 405.823 500.931 415.359C502.552 415.359 504.172 415.379 505.793 415.398Z" fill="black"/>
<path fill-rule="evenodd" clip-rule="evenodd" d="M292.67 391.155C290.885 391.742 282.263 392.851 282.265 395.998C282.266 397.885 290.876 397.848 292.4 398.053C292.49 395.754 292.58 393.454 292.67 391.155ZM311.701 412.87C316.669 413.969 323.413 412.424 326.589 407.329C328.074 404.948 328.777 401.327 329.261 398.486C329.722 395.779 331.146 389.022 330.177 386.484C328.988 383.367 317.572 386.625 314.248 386.982C308.448 387.605 302.451 387.678 296.648 387.238C296.648 394.209 296.342 401.002 299.866 407.002C302.409 411.331 307.184 412.352 311.701 412.87ZM310.702 421.48C305.304 419.182 299.637 420.675 296.121 413.934C295.23 412.224 294.478 410.385 293.939 408.485C293.675 407.653 293.47 406.8 293.324 405.927C293.599 404.048 293.007 403.518 291.549 404.337C288.688 403.69 285.551 405.975 282.537 405.302C275.227 403.668 276.555 391.488 281.46 387.272C282.429 386.438 283.397 386.207 284.506 385.795C286.952 384.889 288.275 385.901 290.512 385.644C292.319 385.436 292.816 383.231 294.758 382.26C296.03 381.625 297.796 381.674 299.133 381.61C306.13 381.275 313.148 381.278 320.19 380.748C323.474 380.501 327.02 381.106 330.238 380.453C331.744 380.147 331.528 378.981 332.954 380.004C334.431 381.063 333.793 384.981 333.719 386.543C333.288 395.576 332.825 405.265 328.665 413.162C324.859 420.388 317.37 421.127 310.702 421.48Z" fill="black"/>
<path fill-rule="evenodd" clip-rule="evenodd" d="M25.6106 423.968C27.3474 423.946 29.0837 423.925 30.8146 423.904C29.0756 423.926 27.3431 423.946 25.6106 423.968Z" fill="black"/>
<path fill-rule="evenodd" clip-rule="evenodd" d="M507.876 231.364C507.872 229.423 507.869 227.482 507.865 225.546C507.868 227.487 507.872 229.426 507.876 231.364Z" fill="black"/>
<path fill-rule="evenodd" clip-rule="evenodd" d="M66.0775 239.333C66.072 241.223 66.0665 243.114 66.061 245C66.066 243.108 66.0714 241.22 66.0775 239.333Z" fill="black"/>
<path fill-rule="evenodd" clip-rule="evenodd" d="M210.445 421.825C211.826 421.828 213.208 421.83 214.583 421.834C213.2 421.832 211.823 421.829 210.445 421.825Z" fill="black"/>
<path fill-rule="evenodd" clip-rule="evenodd" d="M126.546 421.44C127.928 421.445 129.309 421.45 130.684 421.456C129.3 421.452 127.923 421.446 126.546 421.44Z" fill="black"/>
<path fill-rule="evenodd" clip-rule="evenodd" d="M428.646 342.929C428.585 344.205 428.524 345.48 428.463 346.754C428.524 345.476 428.585 344.203 428.646 342.929Z" fill="black"/>
<path fill-rule="evenodd" clip-rule="evenodd" d="M505.793 415.395C504.725 415.382 503.657 415.37 502.59 415.357C503.662 414.836 504.73 414.859 505.793 415.395Z" fill="black"/>
<path fill-rule="evenodd" clip-rule="evenodd" d="M410.991 421.045C411.758 421.031 412.524 421.018 413.283 421.003C412.515 421.016 411.753 421.031 410.991 421.045Z" fill="black"/>
<path fill-rule="evenodd" clip-rule="evenodd" d="M507.46 247.109C507.479 246.145 507.498 245.181 507.517 244.22C507.498 245.185 507.479 246.147 507.46 247.109Z" fill="black"/>
<path fill-rule="evenodd" clip-rule="evenodd" d="M435.791 125.104C435.727 124.109 435.664 123.115 435.601 122.123C435.664 123.118 435.727 124.111 435.791 125.104Z" fill="black"/>
<path fill-rule="evenodd" clip-rule="evenodd" d="M507.838 235.163C507.849 234.165 507.859 233.169 507.869 232.175C507.859 233.173 507.849 234.168 507.838 235.163Z" fill="black"/>
<path fill-rule="evenodd" clip-rule="evenodd" d="M266.829 419.808C267.511 419.82 268.192 419.831 268.868 419.841C268.185 419.829 267.507 419.819 266.829 419.808Z" fill="black"/>
<path fill-rule="evenodd" clip-rule="evenodd" d="M442.348 421.434C443.014 421.449 443.68 421.465 444.34 421.481C443.672 421.466 443.01 421.45 442.348 421.434Z" fill="black"/>
<path fill-rule="evenodd" clip-rule="evenodd" d="M514.299 351.322C514.251 350.447 514.203 349.573 514.156 348.7C514.204 349.575 514.251 350.448 514.299 351.322Z" fill="black"/>
<path fill-rule="evenodd" clip-rule="evenodd" d="M502.341 422.284C502.883 422.281 503.425 422.277 503.961 422.276C503.417 422.28 502.879 422.283 502.341 422.284Z" fill="black"/>
<path fill-rule="evenodd" clip-rule="evenodd" d="M428.467 421.474C429.004 421.459 429.541 421.444 430.072 421.429C429.533 421.445 428.999 421.46 428.467 421.474Z" fill="black"/>
<path fill-rule="evenodd" clip-rule="evenodd" d="M307.776 420.997C308.367 420.994 308.958 420.99 309.543 420.985C308.951 420.989 308.363 420.993 307.776 420.997Z" fill="black"/>
<path fill-rule="evenodd" clip-rule="evenodd" d="M171.481 420.995C172.042 420.999 172.604 421.004 173.16 421.01C172.596 421.006 172.038 421 171.481 420.995Z" fill="black"/>
<path fill-rule="evenodd" clip-rule="evenodd" d="M138.325 421.1C138.898 421.063 139.47 421.026 140.037 420.989C139.463 421.027 138.894 421.063 138.325 421.1Z" fill="black"/>
<path fill-rule="evenodd" clip-rule="evenodd" d="M297.063 167.15C296.211 167.065 295.358 166.979 294.506 166.894C295.359 166.963 296.262 166.376 297.063 167.15Z" fill="black"/>
<path fill-rule="evenodd" clip-rule="evenodd" d="M514.38 415.772C513.539 415.674 512.699 415.575 511.858 415.475C512.699 415.575 513.539 415.674 514.38 415.772Z" fill="black"/>
<path fill-rule="evenodd" clip-rule="evenodd" d="M455.745 173.171C455.689 174.027 455.632 174.885 455.576 175.739C455.633 174.881 455.689 174.025 455.745 173.171Z" fill="black"/>
<path fill-rule="evenodd" clip-rule="evenodd" d="M508.049 208.89C508.106 208.078 508.164 207.266 508.221 206.457C508.164 207.27 508.106 208.08 508.049 208.89Z" fill="black"/>
<path fill-rule="evenodd" clip-rule="evenodd" d="M455.411 186.46C455.351 187.316 455.29 188.171 455.23 189.023C455.29 188.167 455.351 187.313 455.411 186.46Z" fill="black"/>
<path fill-rule="evenodd" clip-rule="evenodd" d="M507.693 241.676C507.688 240.85 507.682 240.023 507.677 239.199C508.136 240.023 508.118 240.848 507.693 241.676Z" fill="black"/>
<path fill-rule="evenodd" clip-rule="evenodd" d="M428.657 360.381C428.651 361.21 428.645 362.039 428.637 362.864C428.167 362.028 428.261 361.203 428.657 360.381Z" fill="black"/>
<path fill-rule="evenodd" clip-rule="evenodd" d="M482.236 264.528C482.154 263.69 482.072 262.851 481.99 262.015C482.072 262.855 482.154 263.692 482.236 264.528Z" fill="black"/>
<path fill-rule="evenodd" clip-rule="evenodd" d="M38.5831 187.562C38.0257 188.419 37.2666 187.832 36.604 187.936C37.2644 187.812 37.9237 187.687 38.5831 187.562Z" fill="black"/>
<path fill-rule="evenodd" clip-rule="evenodd" d="M314.181 381.342C313.477 381.343 312.773 381.344 312.068 381.345C312.773 381.344 313.477 381.342 314.181 381.342Z" fill="black"/>
<path fill-rule="evenodd" clip-rule="evenodd" d="M426.676 191.083C426.741 191.779 426.807 192.476 426.872 193.17C426.807 192.472 426.741 191.778 426.676 191.083Z" fill="black"/>
<path fill-rule="evenodd" clip-rule="evenodd" d="M78.6937 121.892C77.9858 121.908 77.278 121.924 76.5701 121.941C77.2704 121.461 77.9761 121.322 78.6937 121.892Z" fill="black"/>
<path fill-rule="evenodd" clip-rule="evenodd" d="M455.394 198.512C455.348 199.242 455.302 199.972 455.257 200.7C455.303 199.969 455.348 199.24 455.394 198.512Z" fill="black"/>
<path fill-rule="evenodd" clip-rule="evenodd" d="M435.981 108.834C436.036 108.168 436.09 107.502 436.145 106.84C436.09 107.507 436.036 108.171 435.981 108.834Z" fill="black"/>
<path fill-rule="evenodd" clip-rule="evenodd" d="M430.418 106.748C430.363 107.47 430.307 108.193 430.252 108.913C430.308 108.19 430.363 107.468 430.418 106.748Z" fill="black"/>
<path fill-rule="evenodd" clip-rule="evenodd" d="M122.932 58.4888C122.212 58.5904 121.492 58.6921 120.772 58.7932C121.492 58.6915 122.212 58.5904 122.932 58.4888Z" fill="black"/>
<path fill-rule="evenodd" clip-rule="evenodd" d="M70.9071 122.467C70.1679 122.555 69.4287 122.643 68.6901 122.731C69.4292 122.643 70.1684 122.555 70.9071 122.467Z" fill="black"/>
<path fill-rule="evenodd" clip-rule="evenodd" d="M475.965 124.585C476.01 123.913 476.055 123.24 476.1 122.571C476.055 123.244 476.01 123.914 475.965 124.585Z" fill="black"/>
<path fill-rule="evenodd" clip-rule="evenodd" d="M46.6458 235.522C47.0715 235.529 47.4966 235.536 47.9159 235.543C47.4885 235.536 47.0671 235.529 46.6458 235.522Z" fill="black"/>
<path fill-rule="evenodd" clip-rule="evenodd" d="M430.44 318.485C430.397 319.23 430.355 319.973 430.312 320.716C430.355 319.972 430.398 319.228 430.44 318.485Z" fill="black"/>
<path fill-rule="evenodd" clip-rule="evenodd" d="M473.867 173.627C473.849 172.91 473.832 172.193 473.814 171.478C473.833 172.196 473.85 172.911 473.867 173.627Z" fill="black"/>
<path fill-rule="evenodd" clip-rule="evenodd" d="M141.065 56.7912C140.408 56.7912 139.751 56.7919 139.096 56.7919C139.752 56.2672 140.409 56.2804 141.065 56.7912Z" fill="black"/>
<path fill-rule="evenodd" clip-rule="evenodd" d="M316.371 225.638C315.651 225.659 314.932 225.681 314.214 225.702C314.92 225.121 315.64 225.107 316.371 225.638Z" fill="black"/>
<path fill-rule="evenodd" clip-rule="evenodd" d="M379.222 419.779C379.648 419.789 380.075 419.8 380.496 419.812C380.068 419.802 379.645 419.79 379.222 419.779Z" fill="black"/>
<path fill-rule="evenodd" clip-rule="evenodd" d="M395.278 420.65C395.704 420.633 396.129 420.616 396.549 420.599C396.122 420.616 395.7 420.634 395.278 420.65Z" fill="black"/>
<path fill-rule="evenodd" clip-rule="evenodd" d="M144.012 420.995C144.456 421.008 144.9 421.021 145.338 421.034C144.892 421.021 144.452 421.008 144.012 420.995Z" fill="black"/>
<path fill-rule="evenodd" clip-rule="evenodd" d="M513.93 343.022C513.867 342.312 513.804 341.603 513.74 340.896C513.804 341.607 513.867 342.314 513.93 343.022Z" fill="black"/>
<path fill-rule="evenodd" clip-rule="evenodd" d="M455.938 223.46C455.988 224.136 456.039 224.812 456.088 225.483C456.038 224.807 455.988 224.133 455.938 223.46Z" fill="black"/>
<path fill-rule="evenodd" clip-rule="evenodd" d="M478.255 211.855C478.186 211.138 478.117 210.421 478.048 209.707C478.118 210.424 478.186 211.139 478.255 211.855Z" fill="black"/>
<path fill-rule="evenodd" clip-rule="evenodd" d="M147.614 421.423C148.062 421.415 148.51 421.407 148.953 421.4C148.503 421.408 148.059 421.415 147.614 421.423Z" fill="black"/>
<path fill-rule="evenodd" clip-rule="evenodd" d="M310.702 421.479C311.138 421.456 311.573 421.434 312.003 421.411C311.567 421.434 311.134 421.457 310.702 421.479Z" fill="black"/>
<path fill-rule="evenodd" clip-rule="evenodd" d="M474.613 159.517C474.593 158.791 474.574 158.065 474.554 157.34C474.574 158.067 474.594 158.792 474.613 159.517Z" fill="black"/>
<path fill-rule="evenodd" clip-rule="evenodd" d="M105.15 421.897C105.587 421.893 106.023 421.889 106.454 421.886C106.015 421.89 105.583 421.894 105.15 421.897Z" fill="black"/>
<path fill-rule="evenodd" clip-rule="evenodd" d="M474.43 421.89C474.879 421.895 475.328 421.901 475.772 421.906C475.32 421.901 474.875 421.896 474.43 421.89Z" fill="black"/>
<path fill-rule="evenodd" clip-rule="evenodd" d="M484.129 421.828C484.562 421.864 484.996 421.9 485.424 421.935C484.989 421.899 484.559 421.864 484.129 421.828Z" fill="black"/>
<path fill-rule="evenodd" clip-rule="evenodd" d="M488.045 421.819C488.487 421.834 488.929 421.85 489.365 421.861C488.922 421.845 488.483 421.832 488.045 421.819Z" fill="black"/>
<path fill-rule="evenodd" clip-rule="evenodd" d="M508.157 214.733C508.128 214.019 508.1 213.304 508.071 212.592C508.1 213.307 508.128 214.02 508.157 214.733Z" fill="black"/>
<path fill-rule="evenodd" clip-rule="evenodd" d="M211.765 412.457C213.108 412.376 214.451 412.294 215.795 412.212C214.451 412.294 213.108 412.375 211.765 412.457Z" fill="black"/>
<path fill-rule="evenodd" clip-rule="evenodd" d="M130.73 152.745C131.896 152.863 133.062 152.981 134.227 153.098C133.061 152.98 131.896 152.862 130.73 152.745Z" fill="black"/>
<path fill-rule="evenodd" clip-rule="evenodd" d="M459.935 211.712C459.971 213.006 460.009 214.3 460.045 215.591C460.008 214.296 459.971 213.004 459.935 211.712Z" fill="black"/>
<path fill-rule="evenodd" clip-rule="evenodd" d="M483.998 414.67C485.215 414.756 486.432 414.841 487.649 414.927C486.424 414.992 485.181 415.398 483.998 414.67Z" fill="black"/>
<path fill-rule="evenodd" clip-rule="evenodd" d="M476.795 261.587C476.804 260.352 476.813 259.118 476.822 257.886C476.813 259.121 476.804 260.354 476.795 261.587Z" fill="black"/>
<path fill-rule="evenodd" clip-rule="evenodd" d="M473.679 300.375C474.747 300.391 475.816 300.408 476.883 300.424C475.815 300.407 474.747 300.391 473.679 300.375Z" fill="black"/>
<path fill-rule="evenodd" clip-rule="evenodd" d="M204.831 278.671C204.804 279.612 204.777 280.552 204.751 281.489C204.779 280.547 204.805 279.609 204.831 278.671Z" fill="black"/>
<path fill-rule="evenodd" clip-rule="evenodd" d="M491.454 238.833C491.41 239.769 491.367 240.705 491.324 241.636C491.368 240.699 491.411 239.766 491.454 238.833Z" fill="black"/>
<path fill-rule="evenodd" clip-rule="evenodd" d="M468.669 410.504C469.446 410.442 470.223 410.382 470.999 410.323C470.414 410.867 469.827 410.913 468.669 410.504Z" fill="black"/>
<path fill-rule="evenodd" clip-rule="evenodd" d="M463.47 288.117C463.523 289.126 463.577 290.135 463.629 291.141C463.576 290.131 463.523 289.124 463.47 288.117Z" fill="black"/>
<path fill-rule="evenodd" clip-rule="evenodd" d="M172.968 128.822C172.976 127.847 172.984 126.873 172.993 125.902C172.985 126.878 172.977 127.85 172.968 128.822Z" fill="black"/>
<path fill-rule="evenodd" clip-rule="evenodd" d="M464.41 300.579L467.306 300.505C466.35 301.043 465.385 301.061 464.41 300.579Z" fill="black"/>
<path fill-rule="evenodd" clip-rule="evenodd" d="M491.125 307.771C490.442 307.778 489.76 307.785 489.082 307.793C489.766 307.786 490.446 307.779 491.125 307.771Z" fill="black"/>
<path fill-rule="evenodd" clip-rule="evenodd" d="M241.06 410.892C242.005 410.906 242.95 410.921 243.895 410.935C242.943 411.49 241.997 411.568 241.06 410.892Z" fill="black"/>
<path fill-rule="evenodd" clip-rule="evenodd" d="M62.9921 414.132C63.9514 414.032 64.9112 413.932 65.8706 413.832C64.9112 413.932 63.9514 414.032 62.9921 414.132Z" fill="black"/>
<path fill-rule="evenodd" clip-rule="evenodd" d="M460.268 220.024C460.315 221.037 460.362 222.05 460.409 223.06C460.362 222.046 460.315 221.035 460.268 220.024Z" fill="black"/>
<path fill-rule="evenodd" clip-rule="evenodd" d="M154.051 155.124C154.86 154.66 155.675 154.582 156.498 155.073C155.682 155.09 154.867 155.107 154.051 155.124Z" fill="black"/>
<path fill-rule="evenodd" clip-rule="evenodd" d="M433.812 231.722C433.879 232.576 433.946 233.431 434.013 234.282C433.946 233.427 433.879 232.574 433.812 231.722Z" fill="black"/>
<path fill-rule="evenodd" clip-rule="evenodd" d="M502.134 211.783C501.719 210.947 501.733 210.116 502.154 209.292C502.147 210.123 502.141 210.954 502.134 211.783Z" fill="black"/>
<path fill-rule="evenodd" clip-rule="evenodd" d="M460.401 182.762C460.401 183.607 460.401 184.453 460.401 185.296C460.401 184.449 460.401 183.605 460.401 182.762Z" fill="black"/>
<path fill-rule="evenodd" clip-rule="evenodd" d="M489.393 299.971C490.225 299.674 491.058 299.254 491.887 299.981C491.055 299.978 490.224 299.974 489.393 299.971Z" fill="black"/>
<path fill-rule="evenodd" clip-rule="evenodd" d="M220.37 412.074C221.208 411.983 222.045 411.893 222.883 411.802C222.045 411.893 221.208 411.983 220.37 412.074Z" fill="black"/>
<path fill-rule="evenodd" clip-rule="evenodd" d="M105.53 412.076C106.297 411.684 107.063 411.478 107.818 412.106C107.055 412.096 106.293 412.086 105.53 412.076Z" fill="black"/>
<path fill-rule="evenodd" clip-rule="evenodd" d="M262.465 410.818C263.286 410.401 264.104 410.172 264.914 410.847C264.097 410.837 263.281 410.828 262.465 410.818Z" fill="black"/>
<path fill-rule="evenodd" clip-rule="evenodd" d="M79.8336 287.346C79.8951 288.208 79.9572 289.07 80.0181 289.929C79.9561 289.067 79.8946 288.207 79.8336 287.346Z" fill="black"/>
<path fill-rule="evenodd" clip-rule="evenodd" d="M270.308 237.711C271.115 237.37 271.92 237.192 272.712 237.762C271.911 237.745 271.109 237.728 270.308 237.711Z" fill="black"/>
<path fill-rule="evenodd" clip-rule="evenodd" d="M460.255 263.363C460.3 264.205 460.345 265.047 460.389 265.888C460.345 265.045 460.3 264.204 460.255 263.363Z" fill="black"/>
<path fill-rule="evenodd" clip-rule="evenodd" d="M79.3121 187.362C79.2452 188.04 79.1783 188.72 79.1119 189.394C79.1788 188.715 79.2452 188.039 79.3121 187.362Z" fill="black"/>
<path fill-rule="evenodd" clip-rule="evenodd" d="M32.5266 384.118C32.4851 384.779 32.4441 385.439 32.4031 386.096C32.4457 385.434 32.4862 384.776 32.5266 384.118Z" fill="black"/>
<path fill-rule="evenodd" clip-rule="evenodd" d="M477.153 267.82C477.108 267.137 477.062 266.454 477.017 265.775C477.062 266.459 477.108 267.14 477.153 267.82Z" fill="black"/>
<path fill-rule="evenodd" clip-rule="evenodd" d="M418.369 409.542C419.088 409.548 419.808 409.554 420.526 409.56C419.807 409.554 419.088 409.548 418.369 409.542Z" fill="black"/>
<path fill-rule="evenodd" clip-rule="evenodd" d="M204.558 284.481C204.692 284.979 204.826 285.476 204.961 285.974C204.063 286.226 203.929 285.729 204.558 284.481Z" fill="black"/>
<path fill-rule="evenodd" clip-rule="evenodd" d="M258.487 236.588C259.218 236.584 259.948 236.581 260.679 236.577C259.949 236.98 259.219 237.257 258.487 236.588Z" fill="black"/>
<path fill-rule="evenodd" clip-rule="evenodd" d="M80.2433 291.427C80.2685 292.18 80.2936 292.934 80.3177 293.684C80.292 292.931 80.2674 292.179 80.2433 291.427Z" fill="black"/>
<path fill-rule="evenodd" clip-rule="evenodd" d="M87.9719 412.9C88.6771 412.899 89.3818 412.899 90.087 412.898C89.3812 412.899 88.6771 412.899 87.9719 412.9Z" fill="black"/>
<path fill-rule="evenodd" clip-rule="evenodd" d="M435.586 299.368C435.612 300.062 435.639 300.755 435.666 301.445C435.64 300.749 435.613 300.059 435.586 299.368Z" fill="black"/>
<path fill-rule="evenodd" clip-rule="evenodd" d="M73.0016 413.745C73.6949 413.21 74.3898 413.256 75.0859 413.736C74.3909 413.74 73.696 413.743 73.0016 413.745Z" fill="black"/>
<path fill-rule="evenodd" clip-rule="evenodd" d="M91.2587 177.673C91.2959 178.381 91.3337 179.09 91.3725 179.793C91.3353 179.084 91.297 178.379 91.2587 177.673Z" fill="black"/>
<path fill-rule="evenodd" clip-rule="evenodd" d="M69.3942 413.819C70.115 413.822 70.8358 413.826 71.5562 413.83C70.8332 414.402 70.1128 414.429 69.3942 413.819Z" fill="black"/>
<path fill-rule="evenodd" clip-rule="evenodd" d="M468.547 166.56C468.553 165.841 468.558 165.122 468.564 164.405C468.558 165.124 468.552 165.842 468.547 166.56Z" fill="black"/>
<path fill-rule="evenodd" clip-rule="evenodd" d="M137.614 153.982C138.304 154.087 138.993 154.191 139.682 154.296C138.993 154.191 138.303 154.087 137.614 153.982Z" fill="black"/>
<path fill-rule="evenodd" clip-rule="evenodd" d="M76.7662 216.053C76.7755 216.725 76.7848 217.397 76.7958 218.066C76.7865 217.393 76.7766 216.723 76.7662 216.053Z" fill="black"/>
<path fill-rule="evenodd" clip-rule="evenodd" d="M473.189 215.957C473.151 215.273 473.113 214.589 473.076 213.908C473.113 214.593 473.152 215.276 473.189 215.957Z" fill="black"/>
<path fill-rule="evenodd" clip-rule="evenodd" d="M312.364 413.017C313.215 413.106 314.066 413.196 314.916 413.285C314.065 413.195 313.215 413.106 312.364 413.017Z" fill="black"/>
<path fill-rule="evenodd" clip-rule="evenodd" d="M309.521 387.395C309.061 387.403 308.602 387.412 308.146 387.423C308.607 387.416 309.064 387.405 309.521 387.395Z" fill="black"/>
<path fill-rule="evenodd" clip-rule="evenodd" d="M309.56 412.625C310.274 412.707 310.988 412.789 311.701 412.87C310.987 412.788 310.274 412.707 309.56 412.625Z" fill="black"/>
<path fill-rule="evenodd" clip-rule="evenodd" d="M181.136 356.723C182.064 362.826 173.911 368.795 173.264 360.119C173.028 356.946 174.852 354.716 176.894 352.776C179.792 350.024 181.412 352.66 181.136 356.723Z" fill="black"/>
<path fill-rule="evenodd" clip-rule="evenodd" d="M91.2619 282.262C93.1827 283.177 107.858 288.739 100.235 291.537C98.2172 292.278 95.1671 292.388 93.4179 291.084C91.3137 289.513 89.1911 284.879 91.2619 282.262Z" fill="black"/>
<path fill-rule="evenodd" clip-rule="evenodd" d="M94.8733 199.613C99.8544 198.941 104.444 208.457 98.3027 208.149C93.8325 207.923 87.8209 199.613 94.8733 199.613Z" fill="black"/>
<path fill-rule="evenodd" clip-rule="evenodd" d="M112.692 222.948C116.852 227.169 109.142 236.617 106.081 232.961C104.518 231.093 105.96 227.069 107.25 225.506C108.574 223.903 110.93 223.601 112.692 222.948Z" fill="black"/>
<path fill-rule="evenodd" clip-rule="evenodd" d="M125.075 332.387C122.619 332.841 111.821 336.945 114.073 329.49C114.932 326.647 117.327 327.49 119.517 327.621C123.047 327.83 125.075 327.634 125.075 332.387Z" fill="black"/>
<path fill-rule="evenodd" clip-rule="evenodd" d="M117.961 351.591C121.637 353.878 116.264 366.681 113.217 363.957C108.99 360.177 114.772 352.74 117.961 351.591Z" fill="black"/>
<path fill-rule="evenodd" clip-rule="evenodd" d="M133.994 341.299C135.781 340.45 144.207 349.878 141 352.501C139.356 353.846 136.241 351.541 135.25 350.151C133.391 347.545 133.223 344.331 133.994 341.299Z" fill="black"/>
<path fill-rule="evenodd" clip-rule="evenodd" d="M85.379 264.236C87.206 264.585 90.3602 264.695 90.4783 267.681C90.5819 270.306 87.7531 271.156 85.7616 271.362C83.6951 271.576 80.9596 270.897 80.9202 267.875C80.8787 264.615 85.3143 264.811 85.379 264.236Z" fill="black"/>
<path fill-rule="evenodd" clip-rule="evenodd" d="M130.43 394.188C132.376 395.562 141.451 400.509 137.561 404.082C136.105 405.42 131.692 402.658 130.699 401.254C129.513 399.578 128.355 395.652 130.43 394.188Z" fill="black"/>
<path fill-rule="evenodd" clip-rule="evenodd" d="M155.659 358.291C155.377 352.83 163.297 350.657 161.655 358.407C161.192 360.593 160.744 363.91 158.422 364.037C155.676 364.187 155.577 360.408 155.659 358.291Z" fill="black"/>
<path fill-rule="evenodd" clip-rule="evenodd" d="M131.194 263.336C131.249 267.479 124.426 271.131 124.373 264.566C124.326 258.699 131.449 256.982 131.194 263.336Z" fill="black"/>
<path fill-rule="evenodd" clip-rule="evenodd" d="M126.689 241.763C128.37 242.393 130.604 242.718 130.752 245.202C130.909 247.832 128.809 249.003 126.92 248.855C125.37 248.734 123.077 247.4 122.796 245.444C122.383 242.573 124.791 242.386 126.689 241.763Z" fill="black"/>
<path fill-rule="evenodd" clip-rule="evenodd" d="M95.4256 317.601C95.397 314.183 101.286 310.075 102.37 314.041C102.717 315.31 99.9417 321.001 99.0185 321.427C96.576 322.555 96.235 319.927 95.4256 317.601Z" fill="black"/>
<path fill-rule="evenodd" clip-rule="evenodd" d="M143.681 374.491C141.691 376.562 135.722 382.382 136.168 374.57C136.453 369.579 144.206 369.839 143.681 374.491Z" fill="black"/>
<path fill-rule="evenodd" clip-rule="evenodd" d="M240.93 396.821C241.583 393.536 250.921 399.234 247.805 403.384C246.759 404.776 244.024 403.516 242.973 402.691C240.891 401.057 240.846 399.549 240.93 396.821Z" fill="black"/>
<path fill-rule="evenodd" clip-rule="evenodd" d="M188.899 326.502C189.263 325.038 189.668 322.448 190.869 321.514C193.042 319.823 194.934 322.374 194.935 325.062C194.936 330.077 190.028 331.658 188.899 326.502Z" fill="black"/>
<path fill-rule="evenodd" clip-rule="evenodd" d="M165.754 385.134C168.179 385.781 173.577 392.637 170.446 395.434C167.433 398.126 163.425 387.182 165.754 385.134Z" fill="black"/>
<path fill-rule="evenodd" clip-rule="evenodd" d="M168.063 333.237C171.18 333.526 175.465 339.399 170.619 340.332C166.829 341.063 162.421 334.676 168.063 333.237Z" fill="black"/>
<path fill-rule="evenodd" clip-rule="evenodd" d="M196.286 360.261C197.068 357.197 204.8 360.48 204.365 363.853C204.134 365.646 200.973 366.067 199.311 365.593C196.865 364.895 196.23 363.028 196.286 360.261Z" fill="black"/>
<path fill-rule="evenodd" clip-rule="evenodd" d="M105.147 189.166C105.203 185.205 111.745 183.591 112.224 187.582C112.657 191.188 105.065 195.025 105.147 189.166Z" fill="black"/>
<path fill-rule="evenodd" clip-rule="evenodd" d="M194.125 401.069C194.596 399.077 194.8 396.681 196.938 396.418C199.386 396.118 199.314 398.302 199.026 400.565C198.243 406.723 195.252 407.03 194.125 401.069Z" fill="black"/>
<path fill-rule="evenodd" clip-rule="evenodd" d="M90.814 236.285C87.4035 237.18 81.1572 229.539 84.975 227.9C87.6652 226.743 90.814 233.98 90.814 236.285Z" fill="black"/>
<path fill-rule="evenodd" clip-rule="evenodd" d="M134.313 295.636C132.578 296.587 132.178 297.164 130.845 295.603C129.684 294.244 129.735 290.459 130.731 289.045C134.548 283.633 134.459 293.446 134.313 295.636Z" fill="black"/>
<path fill-rule="evenodd" clip-rule="evenodd" d="M148.475 284.658C150.285 284.926 155.664 290.861 152.863 293.219C149.431 296.109 147.489 287.057 148.475 284.658Z" fill="black"/>
<path fill-rule="evenodd" clip-rule="evenodd" d="M187.639 286.221C186.323 292.115 183.039 288.149 183.225 283.689C183.524 276.545 186.928 282.767 187.639 286.221Z" fill="black"/>
<path fill-rule="evenodd" clip-rule="evenodd" d="M207.609 380.884C209.835 381.955 212.857 391.854 209.677 392.385C206.106 392.981 207.295 382.945 207.609 380.884Z" fill="black"/>
<path fill-rule="evenodd" clip-rule="evenodd" d="M179.808 375.323C182.356 374.323 183.289 380.573 181.809 381.734C178.551 384.289 179.238 376.798 179.808 375.323Z" fill="black"/>
<path fill-rule="evenodd" clip-rule="evenodd" d="M155.658 358.291C155.626 359.121 155.594 359.95 155.561 360.775C155.593 359.944 155.625 359.117 155.658 358.291Z" fill="black"/>
<path fill-rule="evenodd" clip-rule="evenodd" d="M240.931 396.82C240.904 397.671 240.878 398.522 240.85 399.368C240.876 398.516 240.903 397.668 240.931 396.82Z" fill="black"/>
<path fill-rule="evenodd" clip-rule="evenodd" d="M196.287 360.261C196.272 360.983 196.257 361.705 196.241 362.422C196.255 361.699 196.271 360.98 196.287 360.261Z" fill="black"/>
<path fill-rule="evenodd" clip-rule="evenodd" d="M478.037 347.84C483.318 347.642 489.21 345.33 494.399 346.066C495.828 346.269 499.116 346.687 496.828 349.152C495.733 350.331 490.492 349.721 488.906 350.112C479.21 352.5 468.203 354.041 458.261 353.842C453.606 353.749 448.918 353.315 444.266 353.029C439.617 352.743 439.16 350.545 444.391 349.846C449.824 349.121 455.398 349.39 460.858 349.382C466.598 349.373 472.309 348.285 478.037 347.84Z" fill="black"/>
<path fill-rule="evenodd" clip-rule="evenodd" d="M489.631 333.039C489.123 334.723 488.677 338.586 486.729 338.84C484.001 339.194 483.549 333.746 483.65 331.753C483.772 329.348 484.516 325.353 487.086 326.186C489.256 326.889 489.474 331.114 489.631 333.039Z" fill="black"/>
<path fill-rule="evenodd" clip-rule="evenodd" d="M473.116 331.806C473.515 330.004 473.71 325.939 475.902 325.801C478.352 325.647 479.051 329.882 479.035 331.911C479.019 333.837 478.407 337.476 476.456 337.921C473.812 338.524 473.576 333.866 473.116 331.806Z" fill="black"/>
<path fill-rule="evenodd" clip-rule="evenodd" d="M445.612 335.04C444.819 337.206 444.294 340.191 441.838 338.713C439.938 337.571 439.674 332.964 440.032 330.854C440.403 328.669 441.189 326.162 443.348 327.145C445.837 328.279 445.586 332.654 445.612 335.04Z" fill="black"/>
<path fill-rule="evenodd" clip-rule="evenodd" d="M466.44 333.039C464.099 341.294 459.829 335.709 461.451 329.546C463.146 323.104 466.225 329.361 466.44 333.039Z" fill="black"/>
<path fill-rule="evenodd" clip-rule="evenodd" d="M455.034 333.448C454.384 334.901 453.692 338.037 451.939 337.707C449.791 337.301 449.722 332.492 449.958 330.701C450.163 329.133 450.769 326.52 452.567 326.554C455.165 326.603 454.991 331.566 455.034 333.448Z" fill="black"/>
<path fill-rule="evenodd" clip-rule="evenodd" d="M501.733 335.032C499.99 339.581 497.593 335.662 498.36 332.432C499.498 327.641 501.634 331.886 501.733 335.032Z" fill="black"/>
<path fill-rule="evenodd" clip-rule="evenodd" d="M459.052 349.388C457.149 349.379 455.245 349.371 453.342 349.363C455.247 348.945 457.151 348.783 459.052 349.388Z" fill="black"/>
<path fill-rule="evenodd" clip-rule="evenodd" d="M496.875 346.047C495.224 346.06 493.574 346.071 491.924 346.084C493.571 345.509 495.222 345.497 496.875 346.047Z" fill="black"/>
<path fill-rule="evenodd" clip-rule="evenodd" d="M478.038 347.839C476.716 347.942 475.395 348.045 474.075 348.148C475.396 348.045 476.717 347.942 478.038 347.839Z" fill="black"/>
<path fill-rule="evenodd" clip-rule="evenodd" d="M445.613 335.04C445.601 333.937 445.588 332.833 445.576 331.732C446.065 332.83 446.031 333.932 445.613 335.04Z" fill="black"/>
<path fill-rule="evenodd" clip-rule="evenodd" d="M455.969 353.818C456.735 353.826 457.501 353.834 458.261 353.842C457.492 353.834 456.73 353.826 455.969 353.818Z" fill="black"/>
<path fill-rule="evenodd" clip-rule="evenodd" d="M443.103 353.029C443.878 353.029 444.655 353.028 445.425 353.029C444.646 353.029 443.875 353.029 443.103 353.029Z" fill="black"/>
<path fill-rule="evenodd" clip-rule="evenodd" d="M449.465 349.483C448.386 349.586 447.307 349.689 446.228 349.792C447.307 349.689 448.386 349.586 449.465 349.483Z" fill="black"/>
<path fill-rule="evenodd" clip-rule="evenodd" d="M464.055 349.374C462.989 349.377 461.924 349.379 460.858 349.382C461.923 348.859 462.988 348.844 464.055 349.374Z" fill="black"/>
<path fill-rule="evenodd" clip-rule="evenodd" d="M455.035 333.447C455.008 332.298 454.982 331.148 454.956 329.999C454.983 331.15 455.009 332.299 455.035 333.447Z" fill="black"/>
<path fill-rule="evenodd" clip-rule="evenodd" d="M440.032 330.854C440.026 331.976 440.02 333.097 440.012 334.214C440.018 333.092 440.025 331.973 440.032 330.854Z" fill="black"/>
<path fill-rule="evenodd" clip-rule="evenodd" d="M484.091 347.422C483.149 347.521 482.208 347.62 481.267 347.719C482.209 347.62 483.15 347.521 484.091 347.422Z" fill="black"/>
<path fill-rule="evenodd" clip-rule="evenodd" d="M501.733 335.032C501.702 334.053 501.672 333.073 501.642 332.094C501.672 333.075 501.702 334.053 501.733 335.032Z" fill="black"/>
<path fill-rule="evenodd" clip-rule="evenodd" d="M461.661 353.85C462.317 353.836 462.972 353.822 463.621 353.809C462.963 353.824 462.312 353.837 461.661 353.85Z" fill="black"/>
<path fill-rule="evenodd" clip-rule="evenodd" d="M489.631 333.039C489.573 332.335 489.516 331.63 489.458 330.928C489.516 331.634 489.574 332.336 489.631 333.039Z" fill="black"/>
<path fill-rule="evenodd" clip-rule="evenodd" d="M466.44 333.039C466.398 332.316 466.356 331.592 466.314 330.871C466.356 331.595 466.398 332.317 466.44 333.039Z" fill="black"/>
<path fill-rule="evenodd" clip-rule="evenodd" d="M128.339 120.568C125.76 119.781 125.277 115.565 125.691 112.976C126.161 111.729 126.631 110.482 127.101 109.234C126.917 108.773 126.734 108.311 126.55 107.85C126.786 105.28 126.183 104.164 128.722 105.205C133.438 107.139 134.191 120.369 128.339 120.568Z" fill="black"/>
<path fill-rule="evenodd" clip-rule="evenodd" d="M166.507 112.418C168.631 112.223 172.49 115.101 170.375 117.885C169.065 119.61 164.748 118.794 162.987 119.154C160.652 119.632 158.215 120.285 159.479 116.216C160.471 113.02 164.015 112.334 166.507 112.418Z" fill="black"/>
<path fill-rule="evenodd" clip-rule="evenodd" d="M164.272 131.56C162.115 129.547 163.078 120.379 166.361 122.028C169.74 123.726 166.073 130.237 164.272 131.56Z" fill="black"/>
<path fill-rule="evenodd" clip-rule="evenodd" d="M125.691 112.977C125.691 113.941 125.691 114.907 125.689 115.867C125.239 114.9 125.253 113.938 125.691 112.977Z" fill="black"/>
<path fill-rule="evenodd" clip-rule="evenodd" d="M128.339 120.568C128.779 120.553 129.219 120.538 129.653 120.525C129.212 120.541 128.776 120.554 128.339 120.568Z" fill="black"/>
<path fill-rule="evenodd" clip-rule="evenodd" d="M394.759 384.591C394.557 388.76 390.708 385.678 390.981 382.888C391.476 377.825 393.937 382.828 394.759 384.591Z" fill="black"/>
</svg>
