<svg width="562" height="568" viewBox="0 0 562 568" fill="none" xmlns="http://www.w3.org/2000/svg">
<path fill-rule="evenodd" clip-rule="evenodd" d="M245.634 228.958C239.657 229.459 233.631 229.255 227.648 229.005C227.059 228.979 225.65 228.619 225.29 229.082C224.877 229.616 224.965 232.555 224.896 233.283C224.38 238.798 223.863 244.314 223.347 249.829C223.109 252.361 222.871 254.894 222.634 257.426C222.567 258.146 221.896 261.259 222.216 261.884C222.798 263.02 226.966 263.279 228.064 263.558L241.144 266.872C242.376 267.184 245.519 267.257 246.09 268.537C246.453 269.349 246.232 271.548 246.274 272.469L246.63 280.071C247.096 290.028 247.562 299.985 248.028 309.941C257.285 308.962 266.542 307.984 275.798 307.005C278.05 306.767 280.303 306.529 282.555 306.291C283.091 306.234 284.215 306.383 284.653 305.993C285.609 305.141 286.424 301.498 286.94 300.189C288.254 296.852 289.569 293.515 290.884 290.178C292.151 286.962 293.418 283.746 294.685 280.531C295.009 279.708 295.819 278.334 295.799 277.434C295.776 276.42 294.626 274.604 294.266 273.737C293.214 271.196 292.161 268.656 291.108 266.115C285.895 253.534 280.682 240.953 275.469 228.372C275.204 227.734 274.615 225.416 274.098 225.063C273.094 224.38 269.582 225.755 268.5 225.918C260.897 227.059 253.274 228.316 245.634 228.958Z" fill="#008000"/>
<path fill-rule="evenodd" clip-rule="evenodd" d="M157.459 207.345C159.307 210.229 161.155 213.113 163.003 215.998C167.904 208.042 172.804 200.086 177.704 192.131C175.247 190.686 172.791 189.242 170.335 187.798C168.154 186.517 168.433 187.126 167.053 189.667C163.856 195.56 160.657 201.453 157.459 207.345Z" fill="black"/>
<path fill-rule="evenodd" clip-rule="evenodd" d="M251.958 395.008C251.95 399.2 251.943 403.393 251.935 407.584C261.683 406.953 271.431 406.322 281.178 405.69C280.735 403.931 280.292 402.173 279.849 400.415C279.503 399.041 279.066 394.889 278.225 393.967C277.307 392.96 273.267 393.999 272.033 394.057C265.342 394.374 258.65 394.691 251.958 395.008Z" fill="black"/>
<path fill-rule="evenodd" clip-rule="evenodd" d="M228.737 77.6703C217.35 87.133 205.962 96.5963 194.575 106.059C197.089 109.927 199.603 113.795 202.117 117.663C202.719 118.589 202.826 119.175 203.515 119.085C204.316 118.981 205.665 117.326 206.332 116.779C214.405 110.169 222.477 103.56 230.549 96.9515C232.991 94.9516 235.434 92.9517 237.876 90.9518C234.83 86.5246 231.783 82.0975 228.737 77.6703Z" fill="black"/>
<path fill-rule="evenodd" clip-rule="evenodd" d="M493.312 225.572C492.901 221.174 491.215 216.702 489.981 212.628C488.527 207.827 486.996 203.067 485.428 198.33C484.435 195.331 484.075 196.068 481.479 196.202C478.445 196.358 475.411 196.514 472.379 196.67C474.714 207.825 477.05 218.979 479.385 230.133C479.79 232.063 480.443 239.302 481.717 240.28C482.159 240.619 483.683 240.183 484.183 240.158C485.614 240.087 487.044 240.017 488.476 239.947C490.421 239.851 492.365 239.755 494.31 239.659C494.039 234.958 493.75 230.252 493.312 225.572Z" fill="black"/>
<path fill-rule="evenodd" clip-rule="evenodd" d="M300.655 508.003C295.436 506.268 289.758 507.911 284.499 507.96C281.401 507.989 278.309 507.717 275.213 507.927C274.175 507.997 269.43 507.816 269.269 508.637C269.144 509.267 270.088 510.854 270.453 511.116C271.478 511.851 272.199 510.906 273.233 510.556C276.034 509.605 279.311 510.192 282.19 510.011C285.202 509.823 288.213 509.587 291.225 509.405C294.226 509.223 298.054 510.042 300.655 508.003ZM44.9461 152.143C44.5456 150.936 44.3811 149.02 43.4611 148.265C42.609 147.564 40.8232 148.076 39.8384 148.058C37.7442 148.02 33.1975 148.127 31.8294 150.635C30.1661 153.683 35.0592 155.856 36.6911 155.798C39.5265 155.697 42.1062 152.832 44.9461 152.143ZM97.0734 113.879C97.2891 113.107 96.5316 112.597 95.9843 112.351C94.5919 111.726 93.676 112.767 92.4507 113.549C89.3565 115.527 85.9925 116.834 82.7379 118.262C79.904 119.506 77.2752 121.249 74.4965 122.649C72.5264 123.642 68.3685 123.448 67.2339 125.953C64.9939 130.901 70.8617 127.19 71.8956 126.71C74.8626 125.334 78.0205 124.486 80.9288 122.913C83.7278 121.399 86.5819 119.86 89.352 118.221C90.6158 117.473 91.8725 116.838 93.161 116.185C94.3666 115.574 95.7909 114.041 97.0734 113.879ZM181.747 199.637C181.008 199.041 177.978 195.713 176.96 196.152C176.165 196.495 175.276 200.318 174.78 201.323C172.298 206.348 169.622 211.167 166.961 216.029C168.142 216.864 169.323 217.699 170.504 218.534C172.912 211.029 177.554 205.412 181.747 199.637ZM227.693 226.462C231.493 226.474 235.258 225.848 239.054 225.917C243.307 225.995 247.487 226.146 251.736 225.69C255.918 225.24 260.083 225.218 264.265 224.883C265.579 224.778 272.904 224.043 268.613 221.288C267.17 220.361 265.434 221.516 263.866 221.932C262.05 222.415 260.217 222.595 258.38 222.886C256.63 223.163 254.772 223.929 253.007 223.872C251.155 223.813 249.765 223.377 247.904 223.73C244.045 224.46 240.203 224.052 236.347 223.581C233.687 223.256 227.849 221.289 227.693 226.462ZM331.114 511.11C333.561 508.515 337.429 509.639 340.335 508.812C343.545 507.898 341.017 503.424 339.787 501.043C338.504 498.558 336.572 493.595 334.416 497.271C332.163 501.111 331.897 506.526 331.114 511.11ZM254.119 398.369C254.038 400.701 253.16 403.101 255.004 403.902C256.774 404.67 259.811 403.502 261.645 403.294C264.036 403.022 266.388 402.504 268.771 402.18C269.835 402.036 270.903 401.928 271.973 402.057C272.709 402.145 274.485 403.198 275.143 402.762C275.952 402.227 276.344 399.342 275.684 398.229C274.968 397.023 270.643 398.218 269.095 398.373C264.053 398.876 259.14 398.072 254.119 398.369ZM253.811 390.886C256.132 389.629 258.889 390.218 261.333 390.2C264.209 390.181 267.051 390.387 269.92 390.633C271.189 390.742 274.892 391.979 275.958 390.91C276.518 390.349 276.719 385.534 276.244 384.797C275.469 383.592 273.038 385.042 272.042 385.238C269.374 385.759 266.651 385.746 263.96 385.713C261.441 385.683 258.914 385.536 256.396 385.528C253.413 385.519 253.817 387.524 253.811 390.886ZM173.965 193.52C173.017 192.796 169.905 189.473 168.742 189.978C167.753 190.407 166.703 194.373 166.112 195.619C164.986 197.993 163.797 200.322 162.631 202.662C161.885 204.158 159.897 206.862 160.237 208.885C160.418 209.961 162.073 211.822 162.909 211.495C163.772 211.158 165.193 206.937 165.672 206.104C168.263 201.602 171.519 198.214 173.965 193.52ZM475.77 198.396C479.091 206.959 479.519 216.642 481.318 225.833C481.737 227.972 482.383 230.084 482.738 232.235C482.936 233.434 482.572 235.488 483.082 236.508C484.359 239.063 490.268 238.252 491.543 236.003C492.292 234.682 491.71 233.312 491.391 231.94C490.961 230.088 491.167 228.475 490.918 226.626C490.418 222.921 487.88 219.182 486.676 215.762C485.361 212.026 484.756 207.532 482.872 204.195C481.61 201.962 478.073 197.354 475.77 198.396ZM259.19 532.451C263.634 531.682 270.625 529.944 270.392 522.087C270.161 514.278 262.377 512.891 258.044 512.206C256.774 512.006 256.636 511.91 255.347 512.922C254.461 513.618 253.579 514.361 252.752 515.173C251.143 516.753 249.321 518.905 248.978 521.662C248.106 528.664 255.29 531.83 259.19 532.451ZM233.786 88.8161C235.802 89.0967 233.12 86.5191 232.611 86.2071C231.069 85.2597 229.354 85.4317 227.716 85.7917C223.753 86.6632 220.245 91.0403 216.858 93.7466C213.271 96.6115 209.732 99.8512 205.992 102.352C204.282 103.496 202.869 104.467 201.448 106.173C200.724 107.043 200.473 107.647 199.5 107.646C198.96 107.646 197.756 105.987 197.182 106.947C195.578 109.626 203.659 110.493 204.503 110.312C208.717 109.405 212.372 107.302 215.988 104.45C219.679 101.539 223.6 99.1751 227.31 96.3415C228.914 95.1161 230.287 93.4912 231.75 92.0357C231.959 91.827 232.337 91.1243 232.549 90.8576C232.889 90.9889 233.174 90.8729 233.403 90.5096C233.522 89.9415 233.649 89.3768 233.786 88.8161ZM315.302 508.075C311.204 509.989 304.503 511.479 302.58 517.803C300.402 524.967 310.193 530.075 314.035 530.464C318.071 530.872 325.245 528.723 325.807 522.121C326.13 518.32 323.84 515.895 321.7 514C319.513 512.062 316.39 511.646 315.302 508.075ZM53.0483 109.077C50.1511 109.514 48.182 109.89 45.8742 112.363C43.9593 114.416 42.3816 116.49 41.6014 119.656C39.7974 126.974 44.256 133.257 49.9835 132.405C50.6149 132.311 51.2316 132.004 51.8726 132.089C52.4615 132.167 52.8731 132.723 53.3708 132.834C54.544 133.096 54.7713 132.825 55.7338 131.625C57.6973 129.174 59.6679 126.482 60.7555 123.176C63.3747 115.213 59.436 109.22 53.0483 109.077ZM118.916 93.8252C119.198 85.5837 109.66 84.2296 105.262 84.8563C100.269 85.5684 92.0765 92.2371 93.9782 100.419C95.6521 107.62 105.095 107.071 109.176 105.607C110.049 105.294 111.406 104.614 112.266 104.844C113.556 105.188 113.619 106.586 114.835 105.321C115.6 104.526 116.29 102.21 116.83 101.069C117.905 98.7964 118.461 96.4268 118.916 93.8252ZM252.97 432.275C252.838 434.039 252.326 436.308 253.77 437.148C254.663 437.667 257.139 437.098 258.035 437.14C261.777 437.315 265.617 436.924 269.336 437.315C270.436 437.431 273.722 438.898 274.7 437.914C275.657 436.952 274.91 433.943 274.847 432.595C274.586 427.099 275.146 421.756 275.326 416.289C275.374 414.821 275.835 411.254 274.979 410.166C273.937 408.842 271.625 409.608 270.384 409.774C266.51 410.29 262.525 411.045 258.631 411.056C257.562 411.059 255.195 410.062 254.268 410.588C252.844 411.395 253.179 414.214 253.101 416.014C252.863 421.44 252.705 426.843 252.97 432.275ZM165.879 186.2C160.8 181.251 155.535 176.558 150.456 171.745C148.648 170.033 147.303 167.586 145.609 165.914C144.546 164.864 144.222 164.407 142.769 165.421C141.09 166.592 139.53 168.432 137.981 169.886C136.68 171.106 135.374 172.316 134.071 173.532C132.864 174.658 132.46 174.914 133.315 176.784C134.82 180.074 137.945 183.044 139.988 185.75C145.03 192.429 149.955 199.338 155.62 205.108C157.567 197.635 161.596 191.558 165.879 186.2ZM222.815 70.8482C213.998 66.2657 213.329 50.7494 210.245 40.859C209.29 47.6297 211.823 58.6336 207.547 63.9508C204.916 67.2205 203.392 62.606 201.98 60.0944C199.829 56.27 197.52 52.6136 195.467 48.6918C196.098 53.423 197.904 58.7329 197.566 63.5441C197.301 67.3211 195.466 72.495 192.794 68.2119C190.96 65.2703 188.612 62.5186 186.472 59.9097C183.901 56.7734 180.967 54.7472 178.171 52.0722C179.254 59.1476 181.317 65.4283 184.359 71.4162C185.92 74.4885 187.628 77.4395 189.101 80.5879C190.305 83.1615 190.873 86.3625 192.468 88.5487C193.959 90.5909 196.15 92.2217 197.935 93.7906C200.476 96.0241 201.085 95.3887 203.421 93.2658C207.944 89.1574 212.855 85.8677 217.408 81.8113C216.565 80.3458 215.219 78.8983 215.263 76.9035C215.299 75.2886 216.238 73.8185 217.496 74.0118C218.482 74.1632 218.937 75.5213 220.034 75.0633C220.961 74.6752 222.228 71.7636 222.815 70.8482ZM526.424 194.414C522.338 195.048 518.524 196.963 514.336 196.614C512.641 196.473 511.376 196.884 510.632 194.646C510.037 192.859 510.646 190.143 508.778 189.656C507.394 189.296 505.681 190.987 504.658 191.944C502.82 193.663 501.191 195.189 499.109 196.404C495.419 198.558 491.673 200.429 487.64 200.664C488.616 204.562 489.644 208.466 490.995 212.17C492.29 215.721 493.565 218.742 493.95 222.698C494.114 224.391 494.114 226.236 495.378 226.98C496.617 227.711 498.826 227.109 500.168 227.14C503.24 227.213 506.314 227.307 509.386 227.317C511.728 227.323 514.056 228.057 516.336 228.014C519.17 227.96 522.377 226.34 525.141 225.57C530.379 224.113 537.708 223.209 541.882 218.51C538.019 217.71 534.083 218.254 530.288 219.349C528.551 219.851 524.565 222.463 523.401 219.848C522.013 216.733 524.728 212.432 526.644 210.985C528.806 209.351 532.031 209.527 533.555 206.582C530.677 206.902 527.646 207.042 524.864 208.155C522.732 209.008 519.981 211.438 519.137 207.23C517.77 200.412 522.86 197.179 526.424 194.414ZM221.494 252.78C222.217 243.756 223.541 234.635 223.659 225.55C223.709 221.625 220.337 222.327 217.977 221.211C214.547 219.59 211.184 217.672 207.816 215.843C204.459 214.02 201.083 212.262 197.714 210.476C194.656 208.856 191.72 206.406 188.636 204.966C186.957 204.181 186.827 204.947 185.853 206.973C184.905 208.944 183.91 210.874 182.88 212.771C180.716 216.757 178.399 220.595 176.031 224.373C183.156 230.016 190.593 235.23 197.946 240.344C205.449 245.563 213.61 248.723 221.494 252.78ZM373.7 218.545C377.469 218.557 381.139 217.844 384.892 217.692C388.601 217.543 392.189 217.757 395.867 217.884C399.401 218.005 402.865 218.948 406.388 219.167C407.245 219.22 408.136 219.216 408.988 219.341C409.845 219.467 410.353 219.886 411.149 220.063C413.103 220.499 415.006 219.882 416.978 220.02C424.249 220.531 431.413 222.496 438.686 222.994C446.163 223.506 453.46 224.27 460.902 225.449C464.836 226.072 468.776 226.438 472.727 226.803C473.538 226.878 475.273 227.549 475.717 226.333C476.256 224.856 474.427 219.811 474.09 218.248C473.652 216.216 473.293 214.139 472.705 212.168C472.361 211.017 471.636 207.258 470.938 206.527C469.964 205.508 468.511 206.487 467.375 206.703C465.073 207.14 462.733 207.401 460.419 207.701C456.993 208.147 453.564 209.211 450.14 209.347C446.275 209.499 442.43 209.281 438.57 209.091C430.838 208.711 422.92 208.907 415.228 207.869C406.34 206.668 397.411 206.18 388.501 205.298C386.39 205.089 384.272 205.036 382.158 204.87C380.646 204.75 377.559 203.354 376.147 204.001C374.711 204.66 374.983 206.894 374.821 208.631C374.511 211.946 374.109 215.25 373.7 218.545ZM281.15 310.515C275.787 311.599 270.525 312.024 265.103 312.229C262.712 312.319 260.336 312.47 257.954 312.785C255.962 313.048 254.845 313.163 254.772 316.031C254.448 328.611 253.928 341.056 253.634 353.64C253.468 360.746 253.659 367.86 253.64 374.968C253.633 377.666 253.213 379.611 255.467 379.925C258.205 380.308 261.079 379.806 263.834 379.84C266.37 379.872 268.906 379.954 271.442 380.027C273.07 380.073 276.09 381.139 276.637 378.545C276.811 377.715 276.497 376.259 276.513 375.341C276.543 373.635 276.703 371.91 276.782 370.204C276.961 366.29 277.092 362.371 277.272 358.457C278.012 342.418 280 326.511 281.15 310.515ZM219.739 110.846C223.277 114.416 227.301 116.872 231.082 119.995C232.895 121.492 234.645 123.098 236.422 124.667C238.249 126.282 240.372 127.26 242.099 129.054C245.44 132.525 249.574 134.738 253.245 137.75C256.975 140.811 260.692 143.877 264.507 146.753C266.195 148.026 268.041 148.791 269.772 149.939C271.847 151.316 273.73 153.119 275.833 154.435C280.336 157.252 284.833 160.072 289.317 162.944C298.119 168.58 307.14 173.787 316.126 178.894C318.041 179.982 320.054 180.46 322.072 181.103C323.025 181.406 324.234 181.564 325.093 182.166C325.36 182.355 325.643 182.381 325.855 182.697C326.26 183.301 325.916 184.148 326.166 184.598C327.565 187.118 331.451 180.038 332.355 178.322C333.75 175.671 333.184 175.242 331.029 174.142C328.855 173.033 326.662 171.987 324.511 170.801C320.551 168.618 316.5 166.147 312.716 163.473C308.78 160.69 304.682 158.392 300.788 155.49C296.42 152.235 292.086 148.913 287.669 145.773C280.217 140.476 273.37 133.797 266.13 128.047C262.132 124.873 258.374 121.095 254.506 117.6C250.731 114.189 247.153 110.381 243.298 107.194C241.178 105.441 238.973 103.982 236.991 101.957C235.51 100.445 234.032 98.8924 232.175 100.163C230.169 101.535 228.276 103.842 226.327 105.435C224.129 107.234 221.935 109.041 219.739 110.846ZM383.967 169.885C382.82 169.094 378.603 166.984 380.583 164.399C381.992 162.56 385.322 165.004 386.687 165.613C386.658 163.069 386.662 161.315 386.039 158.89C385.414 156.453 385.588 154.61 387.111 152.763C387.808 151.919 390.336 151.19 390.629 150.082C391.085 148.36 388.817 148.906 388.043 148.666C383.953 147.394 384.2 141.754 384.099 137.436C383.979 132.359 383.076 127.478 380.094 124.178C378.746 122.688 378.26 122.686 376.6 123.664C375.989 124.025 375.438 124.605 374.763 124.765C373.809 124.991 373.169 124.173 372.319 124.228C371.004 124.314 369.66 127.177 368.379 128.092C366.72 129.278 365.087 128.924 363.448 129.772C361.99 130.526 360.58 132.571 359.22 133.659C357.368 135.141 357.79 136.595 357.909 139.506C358.007 141.935 357.948 143.528 356.132 144.429C355.547 144.72 354.517 144.589 354.019 145.057C353.283 145.747 353.682 146.265 353.445 147.42C352.844 150.34 351.57 148.558 349.945 148.168C347.966 147.692 345.786 149.53 346.82 152.324C347.189 153.324 347.984 154.235 348.779 154.546C349.719 154.914 350.892 153.902 351.759 154.358C353.971 155.524 352.203 158.286 352.309 160.168C353.651 159.21 354.107 156.464 355.495 159.508C356.497 161.708 356.098 165.051 355.849 167.453C355.272 173.011 353.977 179.82 351.228 184.278C350.832 184.92 350.241 186.126 349.497 185.974C348.878 185.848 348.804 184.792 348.269 184.522C347.121 183.941 345.363 184.801 344.923 186.2C344.181 188.562 344.258 192.029 344.199 194.53C344.132 197.408 343.875 200.664 344.406 203.488C345.312 208.311 348.723 209.989 352.04 211.055C353.889 211.648 355.916 212.34 357.787 211.506C359.829 210.597 361.232 208.157 362.671 206.188C363.753 204.708 365.852 203.023 365.993 200.882C366.059 199.88 365.518 198.499 365.394 197.473C365.198 195.844 365.143 194.198 365.176 192.55C365.236 189.522 365.88 186.444 365.684 183.417C365.482 180.32 363.731 180.097 362.778 177.711C362.21 176.288 362.077 174.072 363.458 173.588C364.261 173.306 365.764 174.108 366.634 174.189C367.96 174.313 369.304 174.34 370.634 174.358C373.085 174.39 374.932 174.225 377.151 172.821C379.434 171.377 381.474 170.476 383.967 169.885ZM327.134 509.193C327.227 506.553 327.506 503.913 328.128 501.393C328.656 499.251 329.79 497.375 329.981 495.163C330.379 490.543 329.215 486.204 325.83 484.538C322.548 482.921 318.992 482.947 315.565 483.251C313.576 483.427 311.89 482.531 309.937 482.649C307.882 482.774 306.068 482.403 304.027 482.119C300.236 481.589 297.005 479.393 293.323 478.464C291.522 478.009 290.899 479.021 289.796 480.689C288.582 482.526 287.214 484.071 285.675 485.42C283.309 487.494 279.077 491.305 278.852 484.875C278.662 479.478 282.772 475.48 285.309 471.985C282.738 470.548 282.958 465.212 279.972 467.359C278.675 468.291 277.652 469.669 276.455 470.787C275.447 471.728 273.135 474.347 271.809 474.143C269.939 473.856 269.739 470.359 270.019 468.418C270.528 464.895 273.328 462.866 275.316 460.796C276.517 459.546 278.313 458.561 279.334 457.093C280.419 455.531 280.178 453.782 280.141 451.82C280.125 450.927 280.634 447.564 280.357 446.794C279.932 445.605 278.457 445.919 277.406 445.797C275.456 445.567 273.52 445.117 271.577 444.875C270.054 444.686 268.591 445.138 267.067 445.211C263.217 445.397 259.323 445.133 255.469 445.119C254.77 445.116 251.839 444.457 251.352 445.253C250.932 445.939 251.332 449.119 251.33 449.941C251.316 455.044 251.33 460.14 251.446 465.24C251.673 475.305 251.417 485.638 249.846 495.531C249.561 497.323 248.666 499.309 250.047 500.191C251.109 500.87 253.944 499.815 255.103 499.716C258.86 499.392 262.657 499.711 266.393 499.352C272.898 498.726 279.626 499.301 286.26 499.504C295.087 499.774 303.864 501.03 312.688 501.327C316.523 501.457 320.424 500.536 324.209 500.688C325.697 500.748 326.119 501.243 326.203 503.341C326.302 505.834 325.478 507.171 327.134 509.193ZM141.924 153.29C138.534 145.757 135.338 138.075 131.951 130.539C130.421 127.136 128.703 123.901 126.995 120.651C126.12 118.987 125.153 117.304 124.485 115.471C123.871 113.792 123.689 111.862 122.968 110.25C121.603 114.22 118.673 116.398 115.606 117.818C113.223 118.923 110.899 120.503 108.413 121.185C101.911 122.969 95.4795 126.813 89.0993 129.6C75.5517 135.516 61.0709 138.765 48.0276 146.451C52.4782 152.247 51.0954 164.603 58.5216 166.472C61.476 167.216 64.5615 166.019 67.3893 164.995C70.9599 163.701 74.533 162.416 78.1071 161.136C81.985 159.746 85.9019 158.667 89.8117 157.454C91.7752 156.845 93.7514 156.422 95.719 155.872C97.3579 155.415 97.3777 154.967 98.2364 152.936C99.6885 149.503 102.383 145.991 104.661 150.521C105.589 152.365 105.392 154.681 106.205 156.509C106.9 158.071 108.385 158.881 109.429 159.936C110.154 157.245 111.019 153.601 112.62 151.534C114.367 149.279 116.102 151.093 116.731 153.744C117.486 156.929 116.373 160.804 115.886 163.938C115.648 165.469 115.196 167.23 115.47 168.8C115.833 170.888 117.216 173.04 118.04 174.852C125.74 167.302 133.606 159.593 141.924 153.29ZM292.46 280.123C290.205 276.103 287.822 272.541 286.13 268.037C284.32 263.223 282.858 258.038 280.928 253.347C279.012 248.689 277.249 243.942 275.499 239.158C274.279 235.82 272.889 227.805 269.393 228.006C267.647 228.107 265.865 228.934 264.109 229.161C262.049 229.427 259.981 229.412 257.924 229.743C253.413 230.469 249.021 231.767 244.467 232.118C240.554 232.42 236.591 232.575 232.673 232.351C231.605 232.29 228.826 231.196 227.837 231.823C226.683 232.554 227.068 235.404 226.971 236.863C226.603 242.349 226.039 247.841 225.405 253.283C225.297 254.211 224.206 258.849 224.695 259.633C225.447 260.843 228.681 260.034 229.736 260.141C233.897 260.563 237.985 261.813 242.13 262.418C244.232 262.724 246.338 262.795 248.452 262.805C250.505 262.814 253.501 262.069 255.45 262.994C256.702 263.59 257.413 264.99 257.008 266.773C256.563 268.74 255.113 269.179 253.769 269.547C252.783 269.816 249.923 269.666 249.302 270.858C248.63 272.149 249.807 274.581 250.139 275.806C250.775 278.153 250.414 279.16 250.367 281.455C250.317 283.87 251.38 285.996 251.238 288.439C251.1 290.827 251.025 292.733 251.201 295.167C251.357 297.306 251.249 299.648 251.477 301.726C252.005 306.534 259.908 303.625 262.361 303.553C267.431 303.404 272.52 304.483 277.571 304.163C279.057 304.069 282.502 304.424 283.549 302.764C284.612 301.084 284.78 297.248 285.465 295.168C287.254 289.732 289.919 284.968 292.46 280.123ZM337.601 173.112C337.231 178.69 337.025 182.987 334.486 187.681C331.774 192.694 328.656 192.244 324.375 192.796C320.532 193.29 317.517 194.96 314.431 197.949C310.801 201.463 306.886 204.381 303.017 207.406C295.658 213.161 286.881 214.753 278.525 216.463C276.424 216.893 272.545 218.13 275.018 221.406C277.675 224.928 279.164 230.124 280.95 234.53C285.044 244.632 288.182 255.483 292.852 265.158C294.738 269.066 296.996 273.783 299.891 276.542C302.64 279.161 308.158 274.297 310.956 272.689C314.593 270.598 318.409 269.011 321.835 266.431C325.031 264.024 328.284 261.948 331.643 259.966C334.941 258.02 338.135 256.083 341.59 254.663C345.655 252.991 349.95 252.399 354.079 250.942C358.315 249.45 361.658 247.867 365.081 244.174C366.672 242.458 368.61 240.742 369.251 238.03C369.907 235.256 369.424 231.718 369.325 228.873C369.22 225.9 368.869 222.855 368.915 219.88C368.962 216.882 370.079 214.529 370.754 211.743C371.82 207.346 373.032 199.376 369.658 196.415C369.42 201.112 368.161 205.326 366.982 209.732C365.846 213.976 363.98 216.571 361.192 219.046C360.131 219.987 358.983 221.298 357.727 221.725C356.395 222.179 354.531 221.947 353.146 221.966C350.031 222.009 346.657 220.936 344.258 218.174C339.402 212.583 338.342 202.562 338.811 194.613C339.081 190.041 339.654 185.436 341.247 181.31C341.794 179.892 342.884 178.379 342.276 176.718C341.639 174.979 338.79 173.926 337.601 173.112ZM241.79 270.522C236.062 269.539 230.098 268.738 224.535 266.612C222.51 265.838 220.068 264.858 220.047 261.665C220.04 260.685 220.598 258.915 220.277 257.993C219.948 257.049 217.897 256.985 216.948 256.737C205.914 253.859 195.665 248.232 185.815 241.187C175.852 234.06 166.65 225.651 157.25 217.346C148.078 209.244 140.458 199.349 132.834 188.943C131.776 187.498 130.689 186.089 129.595 184.689C128.797 183.667 127.689 181.585 126.64 181.03C124.754 180.033 122.119 183.811 120.451 184.935C118.283 186.398 115.696 186.62 114.264 183.537C113.319 181.5 114.198 181.128 114.333 179.212C114.445 177.636 113.625 176.743 112.904 175.646C112.348 177.373 111.608 180.532 109.716 180.139C108.014 179.787 107.828 176.703 107.707 174.944C107.565 172.894 108.051 170.289 106.996 168.63C106.166 167.324 104.545 166.37 103.483 167.553C101.346 169.932 102.732 177.017 99.7164 178.783C95.4643 181.273 95.879 169.913 95.7888 167.642C86.2695 169.026 77.3223 174.496 67.7923 176.286C63.9139 177.015 59.434 176.775 56.0492 173.863C52.9369 171.186 49.7045 165.295 48.3739 160.775C45.1816 163.887 41.8439 166.273 37.7447 164.885C33.5777 163.473 29.912 160.432 28.3808 154.923C26.8436 149.393 27.2882 145.182 31.1256 142.061C32.6957 140.784 33.9372 140.158 35.6653 139.541C37.5787 138.859 40.0024 138.364 41.809 137.282C39.9462 133.703 37.8273 130.196 36.9807 125.918C36.0258 121.093 36.5022 115.666 37.9832 111.104C40.6601 102.859 48.1851 97.3423 54.9632 99.2265C60.8785 100.871 65.0643 107.607 66.7443 114.974C67.5078 118.324 66.8374 120.395 69.9523 118.583C73.4895 116.525 76.5851 113.497 80.2387 111.68C83.4083 110.104 86.8649 108.78 89.8016 106.517C91.3216 105.346 91.2502 105.246 90.6304 103.097C89.8608 100.428 89.3854 97.943 89.557 95.0427C90.0477 86.7385 95.2729 80.8519 100.865 78.1196C107.204 75.0219 115.064 76.2454 119.815 82.9394C122.123 86.1918 123.698 90.4662 123.899 94.9414C123.989 96.9249 123.09 99.9405 123.591 101.769C124.028 103.361 126.093 104.581 126.89 106.103C128.154 108.517 128.74 111.408 129.994 113.864C131.081 115.991 132.183 118.1 133.228 120.265C135.767 125.521 138.147 130.906 140.222 136.506C141.171 139.068 142.062 141.666 142.932 144.277C143.529 146.067 144.022 149.337 145.096 150.763C146.181 152.205 147.799 151.743 148.731 153.568C149.904 155.866 148.789 157.897 147.859 159.899C154.932 162.624 159.274 170.501 164.934 176.273C170.647 182.099 176.918 187.145 183.059 192.141C189.452 197.341 195.728 202.298 202.688 206.077C209.174 209.599 215.443 213.75 221.91 217.316C222.817 217.816 223.523 218.478 224.42 217.702C225.249 216.983 225.416 214.667 226.282 213.728C228.478 211.349 233.644 212.669 236.257 212.615C240.027 212.538 243.851 212.258 247.617 212.514C248.892 212.6 250.125 213.268 251.374 213.047C253.288 212.708 255.076 212.194 257.068 212.088C258.727 211.999 260.382 211.838 262.043 211.916C262.831 211.953 264.163 212.398 264.87 211.692C265.751 210.814 265.219 208.706 265.821 207.428C266.212 206.6 266.984 206.373 267.361 205.72C267.313 205.803 267.963 204.328 267.782 204.516C268.943 203.311 272.191 202.946 273.563 203.375C273.959 203.499 274.024 204.377 274.523 204.379C275.019 204.381 275.058 203.721 275.409 203.563C275.773 203.398 275.87 202.735 276.358 202.634C276.896 202.522 277.586 203.319 278.169 203.363C278.826 203.413 279.453 202.84 280.064 202.617C280.876 202.321 281.503 202.538 282.179 202.433C283.413 202.24 284.74 202.057 286.021 201.86C287.885 201.573 289.701 200.808 291.52 200.226C292.317 199.97 293.114 199.673 293.936 199.591C294.885 199.496 296.121 200.084 297.016 199.806C297.783 199.568 297.159 199.208 297.823 198.906C298.541 198.578 299.317 198.488 300.045 198.157C301.718 197.395 303.261 196.13 304.764 194.924C308.263 192.114 311.395 188.612 314.855 185.726C314.065 184.214 311.124 183.958 309.88 183.423C308.168 182.687 306.488 181.825 304.813 180.956C301.005 178.978 297.225 176.905 293.447 174.834C286.28 170.907 279.071 167.117 272.221 162.298C265.787 157.771 258.914 154.244 252.534 149.555C249.288 147.17 246.038 144.659 242.882 142.072C239.942 139.663 236.779 138.019 233.733 135.816C227.784 131.511 222.32 126.155 216.348 121.941C214.937 120.946 213.371 118.839 211.849 118.298C210.541 117.832 209.214 118.793 208.032 119.466C206.779 120.179 205.604 121.35 204.198 121.39C202.65 121.434 200.879 120.337 199.419 119.673C196.705 118.438 194.347 115.015 193.36 111.45C192.878 109.708 192.655 107.771 192.477 105.938C192.266 103.765 192.824 101.21 192.421 99.1431C191.656 95.2121 188.119 91.521 186.142 88.7014C183.687 85.2003 181.559 81.2819 179.621 77.2655C175.288 68.2866 172.282 57.6361 174.697 47.0677C175.066 45.4568 175.722 42.7952 176.806 41.7231C178.31 40.2336 178.954 41.9718 180.255 42.8352C181.871 43.908 183.405 44.5327 184.92 45.9902C186.756 47.7564 188.267 49.9106 189.96 51.8862C189.969 47.3244 189.429 43.3253 190.178 38.7568C190.562 36.4119 191.422 31.5341 193.69 31.116C196.042 30.682 197.729 36.2906 198.753 38.3368C200.656 42.1392 202.784 45.7069 204.901 49.3026C205.176 43.724 204.613 30.4619 209.945 28.2677C214.723 26.3008 217.192 43.2366 218.349 47.0263C219.429 50.562 220.944 54.0551 222.584 57.1961C224.302 60.4871 226.175 58.8102 228.837 58.9649C231.299 59.1083 232.405 61.3478 232.378 64.5228C232.344 68.5399 229.917 71.4742 228.238 74.5052C231.872 76.8161 236.577 79.8218 238.747 84.5803C239.229 85.6344 239.56 86.8445 239.59 88.0886C239.618 89.3188 238.763 91.571 239.207 92.7078C239.532 93.5392 240.627 93.8406 241.211 94.2933C242.417 95.2301 243.489 96.4415 244.681 97.4123C252.496 103.776 259.843 111.379 267.381 118.098C274.189 124.164 281.399 129.568 288.284 135.63C297.039 143.339 306.245 149.898 315.616 156.235C317.778 157.697 319.782 159.321 321.857 160.958C323.986 162.636 326.526 163.771 328.799 165.13C330.391 166.082 332.128 167.894 333.799 168.488C335.787 169.194 336.625 166.419 338.942 167.138C340.941 167.759 343.12 168.034 344.321 170.401C345.374 172.476 345.276 175.651 346.971 176.993C348.937 178.547 349.487 176.881 349.942 174.721C350.459 172.264 351.918 169.454 350.127 167.686C348.435 166.015 346.037 165.831 344.058 165.213C343.054 164.9 341.724 163.758 340.768 163.655C339.575 163.525 339.295 164.988 338.281 164.99C337.742 164.991 337.267 164.305 336.753 164.087C336.638 164.037 336.333 164.597 336.194 164.545C335.691 164.36 335.651 164.139 335.161 163.875C333.414 162.931 331.105 161.444 331.632 158.576C331.915 157.038 333.83 154.564 332.493 153.153C331.237 151.826 329.55 154.592 328.857 151.824C328.365 149.858 329.565 149.33 328.039 147.712C326.918 146.522 325.885 146.199 326.506 144.016C326.905 142.611 328.981 140.474 328.386 138.779C327.543 136.381 324.336 138.806 324.645 134.473C324.866 131.369 327.833 129.129 327.852 126.075C327.867 123.89 326.291 123.905 325.881 122.485C325.477 121.081 325.846 121.087 326.437 120.101C326.876 119.369 327.161 119.126 327.488 118.263C327.887 117.214 328.575 115.856 328.316 114.636C328.084 113.539 327.108 112.887 326.863 111.672C325.937 107.095 333.287 96.6969 335.159 102.998C336.549 100.883 338.372 96.4535 340.829 96.8082C342.314 97.0229 341.679 97.5803 342.195 98.7091C342.57 99.5285 343.608 99.9445 343.902 100.831C344.484 98.4517 343.866 94.0433 345.485 92.2978C347.063 90.5962 348.054 93.5899 348.725 95.2554C349.157 93.6839 349.434 90.7349 350.923 90.1709C352.517 89.5688 353.511 92.1911 354.287 93.5266C355.123 91.9637 356.691 87.3579 358.496 87.9193C359.851 88.34 360.521 91.3143 361.154 92.6871C362.636 91.407 364.971 88.324 366.89 88.65C368.758 88.9667 368.593 91.271 370.779 90.3282C372.363 89.6441 374.01 87.8273 375.692 87.6913C377.465 87.5479 378.403 89.1828 380.372 88.786C382.462 88.3653 382.782 87.7253 384.144 89.9702C384.817 91.0783 384.639 91.5643 385.806 91.7964C386.793 91.993 387.657 91.135 388.692 91.6757C389.458 92.0751 389.993 93.0078 390.313 93.9666C390.692 95.0987 390.253 97.0609 390.631 97.9517C391.358 99.6652 394.106 98.153 395.34 99.3432C397.005 100.949 395.438 103.388 396.324 105.167C397.035 106.596 399.04 106.232 399.837 108.16C400.561 109.906 400.391 112.215 399.552 113.833C399.2 114.513 398.209 115.076 397.977 115.692C397.499 116.961 397.9 116.813 398.178 118.11C398.711 120.592 398.285 121.528 396.831 123.226C395.99 124.208 395.814 123.926 395.758 125.418C395.715 126.569 396.46 127.637 396.322 128.926C396.097 131.019 394.531 132.335 394.06 134.393C393.453 137.042 391.794 138.491 390.544 140.671C392.022 141.844 393.964 142.816 394.681 145.018C395.464 147.42 395.319 150.838 394.764 153.274C394.232 155.609 393.093 157.099 391.997 158.952C390.663 161.208 390.777 162.997 390.695 165.751C390.52 171.572 388.621 176.859 384.281 178.707C382.559 179.441 381.004 180.52 379.257 181.204C377.121 182.04 375.558 182.109 373.342 181.943C371.955 181.84 370.334 181.447 369.852 183.378C369.61 184.343 369.698 188.101 370.027 188.959C370.59 190.427 372.186 190.232 373.147 191.501C374.881 193.791 374.391 195.743 377.317 195.796C386.796 195.97 396.245 195.007 405.724 195.91C410.398 196.355 414.973 197.418 419.666 197.731C424.831 198.074 430.01 198.189 435.171 198.602C440.043 198.991 444.81 199.83 449.708 199.498C454.282 199.188 458.675 198.776 463.23 198.111C464.789 197.883 467.203 198.21 468.304 196.643C468.914 195.774 469.055 194.284 469.664 193.327C470.227 192.444 470.99 191.804 471.68 191.115C473.355 189.443 474.933 187.94 477.142 187.995C479.077 188.044 480.62 189.883 482.198 191.235C484.029 192.805 484.787 193.526 486.957 192.918C489.121 192.312 491.105 191.187 493.216 190.361C497.669 188.617 501.842 186.109 505.898 183.135C507.896 181.669 509.304 180.684 511.605 181.566C513.964 182.471 514.635 183.361 514.663 186.583C514.672 187.606 514.375 189.424 515.269 190.015C515.918 190.443 517.346 189.247 517.897 188.933C520.33 187.544 522.72 186.097 525.264 185.083C527.585 184.157 529.936 183.335 532.267 182.451C534.218 181.711 536.818 180.64 538.761 182.017C543.67 185.496 536.447 194.336 534.571 197.277C536.91 196.54 541.931 196.961 543.161 200.263C544.617 204.171 541.698 208.047 540.051 210.888C542.358 212.27 547.016 211.082 547.667 215.433C548.213 219.086 545.324 222.766 543.441 224.903C538.567 230.434 531.008 234.307 524.572 234.38C522.939 234.399 521.347 233.98 519.723 233.878C518.534 233.804 517.462 234.345 516.307 234.347C514.679 234.349 513.236 233.929 511.557 234.231C509.622 234.579 507.702 235.006 505.758 235.294C503.955 235.561 502.15 235.804 500.341 235.989C499.148 236.113 497.349 235.766 496.241 236.293C494.808 236.974 495.226 237.656 495.109 239.47C494.966 241.697 494.108 243.711 492.86 245.196C488.327 250.593 480.608 249.298 478.33 241.376C477.775 239.449 478.512 238.442 478.303 236.706C478.092 234.958 476.857 235.017 475.646 234.899C471.963 234.541 468.232 234.507 464.533 234.172C457.372 233.523 449.997 232.202 442.839 232.426C435.37 232.66 427.853 232.069 420.392 231.536C416.91 231.287 413.303 229.681 409.876 230.028C406.236 230.395 402.371 229.363 398.711 228.863C390.532 227.745 381.401 227.421 373.842 222.95C374.44 233.729 375.433 244.671 368.784 252.71C365.998 256.078 362.497 259.937 358.844 261.373C354.135 263.224 349.621 264.758 344.829 266.132C335.919 268.686 327.066 274.799 319.027 280.29C315.246 282.873 310.809 283.88 306.71 285.327C304.758 286.017 302.558 286.927 300.511 286.831C298.493 286.736 297.092 284.933 295.311 283.856C293.607 289.136 291.307 293.971 289.592 299.183C288.741 301.768 288.071 304.517 287.08 307.018C286.324 308.924 285.102 309.949 284.986 312.159C284.705 317.525 285.452 323.123 285.252 328.549C285.033 334.468 284.334 340.474 283.922 346.4C283.031 359.205 283.447 372.098 282.723 384.921C282.063 396.635 282.475 408.259 281.488 419.983C281.214 423.238 280.909 426.489 280.711 429.754C280.582 431.896 279.68 436.828 280.529 438.749C280.9 439.588 281.792 439.678 282.389 440.099C283.319 440.756 284.166 441.76 284.862 442.805C286.33 445.012 286.681 447.64 287.016 450.451C288.916 449.107 296.884 442.205 295.691 449.764C295.321 452.108 293.705 453.372 292.429 454.867C291.494 455.963 290.602 457.126 289.607 458.131C288.937 458.808 287.515 459.648 287.191 460.755C286.613 462.733 289.6 465.557 291.009 465.535C292.99 465.505 295.462 461.597 297.139 460.351C301.593 457.043 301.191 464.187 299.512 467.292C298.245 469.636 299.316 469.456 301.058 469.931C303.782 470.675 306.297 471.31 309.066 471.764C314.357 472.633 319.563 471.511 324.814 473.118C330.042 474.719 333.15 479.01 333.911 486.085C334.314 489.823 334.692 487.947 337.078 488.823C339.282 489.633 340.526 492.948 341.794 495.195C344.326 499.679 349.06 510.975 345.182 516.262C343.535 518.507 339.537 517.937 337.369 518.32C335.975 518.566 334.296 519.422 332.889 518.979C331.552 518.558 330.662 516.984 329.697 515.83C329.684 522.927 329.652 529.091 325.376 534.215C321.927 538.351 317.314 540.249 312.688 539.831C308.155 539.421 303.5 536.995 300.627 532.201C299.111 529.672 298.032 526.57 297.641 523.383C297.46 521.915 297.409 520.371 297.583 518.896C297.687 518.02 298.321 516.43 297.919 515.583C297.213 514.101 293.757 515.333 292.616 515.485C289.605 515.885 286.602 516.384 283.602 516.913C281.122 517.35 278.592 517.814 276.103 517.196C273.965 516.664 273.147 516.361 273.532 519.69C274.306 526.387 273.017 532.328 268.831 536.446C264.641 540.566 260.774 541.382 255.65 540.297C250.969 539.306 246.686 533.491 245.323 527.706C243.507 520.007 245.379 512.992 249.75 507.736C247.099 505.969 245.34 504.926 244.405 500.845C243.427 496.579 244.341 492.092 244.804 487.814C245.797 478.628 245.41 469.687 245.751 460.471C245.901 456.405 246.539 452.265 246.549 448.21C246.555 445.897 246.458 445.98 244.648 445.961C243.526 445.95 242.336 446.053 241.863 444.333C240.722 440.182 246.075 440.533 247.422 438.88C249.027 436.91 247.918 429.138 247.871 426.403C247.719 417.519 248.387 408.842 248.517 399.981C248.577 395.979 248.763 391.77 248.511 387.782C248.41 386.19 247.718 384.904 247.764 383.32C247.823 381.291 248.12 379.395 248.041 377.284C247.342 358.717 247.189 339.807 249 321.362C249.108 320.258 249.702 317.771 249.384 316.662C248.903 314.982 247.377 315.577 246.31 314.962C243.326 313.242 242.588 310.51 242.425 306.51C242.329 304.14 242.233 301.769 242.139 299.398C242.091 298.181 242.044 296.963 241.994 295.744C241.935 294.333 242.377 292.745 242.351 291.56C242.343 291.179 242.218 290.611 242.216 290.386C241.87 290.162 241.736 289.834 241.811 289.401C241.796 288.994 241.845 288.596 241.96 288.21C241.978 288.441 241.752 286.903 241.732 287.039C241.764 286.828 242.349 285.581 242.29 285.429C242.017 284.723 241.438 285.581 241.244 284.265C241.083 283.16 241.629 281.861 241.446 280.567C240.956 277.114 241.418 274.017 241.79 270.522Z" fill="black"/>
<path fill-rule="evenodd" clip-rule="evenodd" d="M96.5321 324.736C129.688 324.837 162.922 325.912 195.994 327.2C199.639 327.342 203.295 327.748 206.941 327.953C207.575 327.988 209.662 327.639 210.132 328.533C210.897 329.991 209.146 331.473 208.321 332.138C205.482 334.424 201.724 334.025 198.507 334.169C194.069 334.367 189.627 334.389 185.187 334.308C169.757 334.026 154.321 332.484 138.924 331.284C129.44 330.545 119.926 330.093 110.428 329.725C105.74 329.543 101.048 329.443 96.3607 329.239C95.0949 329.185 92.7886 329.704 92.7886 327.516C92.7886 325.236 95.3181 324.859 96.5321 324.736Z" fill="black"/>
<path fill-rule="evenodd" clip-rule="evenodd" d="M136.184 349.267C159.646 350.597 183.124 351.509 206.588 352.74C208.109 352.821 211.347 352.23 211.918 354.685C212.512 357.238 210.038 359.799 208.401 360.461C206.275 361.32 203.569 360.838 201.35 360.921C198.365 361.032 195.528 360.997 192.552 360.733C181.214 359.722 169.896 358.411 158.555 357.399C152.135 356.827 145.72 356.148 139.309 355.42C137.6 355.226 132.523 355.829 131.326 353.996C130.588 352.867 131.37 351.123 132.099 350.252C133.299 348.819 134.679 349.144 136.184 349.267Z" fill="black"/>
<path fill-rule="evenodd" clip-rule="evenodd" d="M205.41 383.006C197.786 383.545 190.077 382.751 182.582 381.095C181.561 380.869 179.201 380.843 178.548 379.596C177.552 377.691 179.424 376.029 180.684 375.861C184.175 375.394 188.326 376.997 191.849 377.279C195.533 377.575 199.268 377.058 202.962 377.02C205.074 376.998 207.185 376.978 209.297 376.969C210.535 376.965 212.316 376.552 213.539 376.922C216.962 377.956 212.609 381.747 211.085 382.183C210.556 382.335 205.428 383.335 205.41 383.006Z" fill="black"/>
<path fill-rule="evenodd" clip-rule="evenodd" d="M371.791 142.411C371.842 141.234 371.609 138.26 372.717 137.702C374.875 136.615 374.733 143.587 375.574 144.568C378.662 148.167 377.83 134.301 380.773 138.773C383.164 142.407 381.244 151.162 377.88 152.795C375.402 153.998 373.716 151.683 372.753 149.003C372.73 148.941 371.392 142.383 371.791 142.411Z" fill="black"/>
<path fill-rule="evenodd" clip-rule="evenodd" d="M374.588 126.536C376.078 126.163 378.018 128.2 377.106 130.172C376.438 131.614 371.914 133.85 370.689 133.888C369.185 133.935 369.312 132.361 369.793 130.758C370.544 128.25 372.549 126.508 374.588 126.536Z" fill="black"/>
<path fill-rule="evenodd" clip-rule="evenodd" d="M102.911 94.9442C103.369 92.4353 104.045 89.4628 106.302 91.8813C107.819 93.5062 108.927 97.5131 109.079 100.019C109.261 103.02 108.009 104.547 105.985 102.863C103.931 101.155 103.147 98.0057 102.911 94.9442Z" fill="black"/>
<path fill-rule="evenodd" clip-rule="evenodd" d="M53.9861 126.494C53.2517 133.203 48.7278 126.959 48.9316 122.867C49.0374 120.737 49.9647 118.991 51.726 120.268C53.3028 121.413 53.8516 124.422 53.9861 126.494Z" fill="black"/>
<path fill-rule="evenodd" clip-rule="evenodd" d="M311.545 518.608C311.881 516.942 311.955 513.513 313.42 512.782C315.587 511.702 316.527 516.439 316.599 518.346C316.677 520.412 316.128 524.803 313.879 524.438C312.035 524.14 311.913 520.417 311.545 518.608Z" fill="black"/>
<path fill-rule="evenodd" clip-rule="evenodd" d="M256.996 521.266C257.411 519.227 257.491 515.543 259.354 514.926C261.404 514.246 262.032 517.923 262.057 520.003C262.081 521.945 261.254 526.977 259.164 526.665C257.555 526.425 257.34 522.913 256.996 521.266Z" fill="black"/>
</svg>
