<svg width="165" height="165" viewBox="0 0 165 165" fill="none" xmlns="http://www.w3.org/2000/svg">
<ellipse cx="81.5944" cy="93.9685" rx="70.8719" ry="70.1702" transform="rotate(-0.444939 81.5944 93.9685)" fill="#EAF5EB"/>
<mask id="mask0" mask-type="alpha" maskUnits="userSpaceOnUse" x="0" y="0" width="165" height="164">
<path d="M128.02 146.497C84.9633 181.744 30.9869 151.744 20.0779 131.088L0.984281 94.5946L29.9911 23.5057L64.0759 0.771993L126.936 6.85169L163.992 63.9462C162.885 79.9711 154.14 118.916 128.02 146.497Z" fill="#C4C4C4" stroke="black"/>
</mask>
<g mask="url(#mask0)">
<path fill-rule="evenodd" clip-rule="evenodd" d="M94.0678 122.968C93.7572 122.738 91.3575 124.208 90.9545 124.433C89.345 125.332 87.8339 126.817 86.3203 128.027C87.5037 130.118 88.6875 132.209 89.8706 134.301C90.9823 130.143 92.4261 126.709 94.0678 122.968ZM95.064 148.771C94.6674 148.84 98.1125 160.725 98.5144 162.059C99.9768 166.912 101.51 171.716 102.991 176.557C104.426 181.247 106.234 185.559 108.055 189.937C109.613 193.682 111.231 199.499 113.559 202.263C112.029 192.724 112.135 181.742 107.896 173.756C103.503 165.477 99.1593 157.393 95.064 148.771ZM264.261 274.821C257.674 259.727 249.472 246.392 242.61 231.57C238.768 223.27 235.026 214.863 231.777 206.023C229.415 199.592 227.906 190.401 224.295 185.499C222.704 183.339 221.006 181.226 218.886 180.269C215.985 178.96 212.015 180.311 209.119 181.386C203.723 183.39 198.46 186.477 193.36 189.716C188.186 193 183.795 198.863 179.134 203.582C174.134 208.645 168.708 212.347 163.087 215.594C158.193 218.422 153.85 222.46 148.983 225.306C148.013 225.873 146.024 225.806 145.212 226.542C144.337 227.335 144.702 229.652 143.639 230.516C143.16 230.906 142.988 229.507 142.618 229.533C142.166 229.564 141.759 230.354 141.326 230.854C139.565 232.895 140.664 234.238 141.389 237.022C143.753 246.091 145.058 255.328 148.345 263.882C151.047 270.913 154.886 277.202 159.383 281.836C160.068 282.541 162.301 285.277 163.096 285.087C163.812 284.918 165.249 282.088 165.739 281.319C167.958 277.828 169.983 274.076 172.201 270.58C175.629 265.177 178.926 259.63 182.251 254.155C186.11 247.798 189.514 240.603 192.982 233.817C194.577 230.695 196.642 228.146 198.42 225.248C200.81 221.353 203 217.167 205.265 213.112C205.95 211.884 207.09 208.75 208.169 208.778C208.926 208.798 210.28 211.421 210.682 212.243C212.177 215.298 212.213 220.837 212.974 224.66C214.832 233.982 218.12 243.075 222.59 250.245C227.034 257.375 232.696 262.426 237.931 268.144C243.603 274.339 248.98 280.682 253.502 288.706C255.253 286.27 257.165 284.111 258.923 281.646C260.597 279.298 262.788 277.386 264.261 274.821ZM181.319 318.314C182.577 318.324 184.716 319.451 185.835 318.753C182.456 313.32 179.354 308.66 175.101 304.692C170.687 300.574 166.288 296.494 161.997 292.099C153.351 283.241 146.961 272.706 143.263 257.872C142.31 254.053 141.661 250.043 140.955 246.115C140.575 243.999 139.773 234.092 138.537 233.245C137.805 232.744 132.367 238.482 131.504 239.198C129.486 240.875 127.458 242.178 125.369 243.493C120.878 246.322 116.242 248.488 111.47 250.304C105.749 252.481 101.814 248.983 98.2081 242.344C94.117 234.812 90.6998 226.305 86.9513 218.391C85.2466 214.791 83.8296 211.195 82.5605 207.22C81.7299 204.62 78.4612 197.611 79.5502 194.824C82.7463 198.366 83.9414 205.448 86.1368 210.206C88.873 216.136 91.9481 221.723 94.6982 227.647C97.0107 232.629 99.3775 238.669 102.765 242.237C105.744 245.375 108.543 244.382 111.712 242.936C115.553 241.185 119.541 240.305 123.302 238.14C127.372 235.798 131.213 232.49 135.181 229.787C137.03 228.526 139.251 227.8 140.991 226.233C142.49 224.883 142.26 224.178 142.348 221.327C142.452 218.001 142.575 214.672 142.649 211.343C142.698 209.107 141.857 206.081 142.399 204.408C137.881 205.603 133.467 207.192 128.982 208.602C126.527 209.373 124.16 210.322 121.678 210.933C120.732 211.166 119.436 211.17 118.592 211.787C117.913 211.505 117.569 211.69 117.561 212.343C117.531 212.697 117.483 213.047 117.415 213.391C116.034 214.336 115.211 212.339 113.992 210.428C112.488 208.069 111.354 205.408 110.243 202.631C107.757 196.422 104.902 190.586 102.597 184.2C100.247 177.69 98.326 170.716 96.3243 163.958C94.4881 157.759 93.2909 151.048 91.268 144.997C90.3652 142.296 89.2302 140.066 87.9075 137.788C86.816 135.909 85.1276 131.85 83.5127 130.995C83.0857 130.769 81.9751 131.163 81.4917 131.116C80.5281 131.022 79.6661 130.506 78.6817 130.628C76.5504 130.891 74.2403 132.904 72.5492 134.67C73.6621 136.113 76.4316 137.856 74.4724 140.487C72.5712 143.04 71.4748 138.495 70.7263 136.505C67.3071 140.722 67.8509 146.496 67.4982 152.42C67.3139 155.512 66.7897 158.561 66.4599 161.608C66.2223 163.801 66.4184 166.066 66.3631 168.304C66.2217 173.991 65.8775 179.435 65.9392 185.04C66.0062 191.032 66.3272 196.816 66.6978 202.761C67.3214 212.771 68.65 222.779 69.7997 232.705C70.4464 238.284 71.3145 243.703 72.1589 249.191C73.1172 255.419 74.8463 261.312 75.8385 267.524C76.7863 265.709 77.5096 265.695 79.0671 265.922C80.2651 266.097 81.0656 265.67 81.0145 268.126C80.9816 269.718 80.0408 270.942 78.9916 271.228C77.6233 271.601 77.1496 270.593 76.4311 269.064C76.2884 271.972 77.6345 275.002 78.1796 277.837C78.6954 280.524 79.0439 283.159 79.8958 285.728C80.727 288.234 81.4412 290.706 82.2818 293.188C82.6689 294.33 83.0317 295.49 83.4231 296.629C83.621 297.206 83.855 298.001 84.1475 298.486C84.8334 299.623 84.7214 299.07 85.5189 299.715C87.2565 301.119 86.6054 300.771 86.6684 303.698C86.7302 306.586 87.7485 308.7 89.3676 310.311C92.8028 313.729 96.1721 314.661 100.061 316.372C103.684 317.965 107.497 319.327 111.32 319.266C116.002 319.191 120.615 318.248 125.297 318.119C130.462 317.978 135.678 317.979 140.835 318.203C142.959 318.295 144.932 318.419 146.989 319.205C149.377 320.118 151.677 319.731 154.13 319.57C159.363 319.229 164.774 318.588 169.94 318.494C173.66 318.426 177.582 318.012 181.319 318.314ZM317.094 320.26C318.031 320.98 320.114 320.665 321.049 320.456C322.694 320.088 322.863 319.121 323.892 316.94C325.663 313.185 327.096 309.59 328.122 305.248C330.084 296.937 330.846 288.444 331.668 279.76C332.582 270.111 330.699 260.131 329.978 250.56C329.813 248.364 329.593 246.188 329.341 244.01C329.19 242.707 329.119 238.273 328.53 237.149C327.399 234.989 322.228 236.778 320.191 236.991C314.506 237.584 308.78 237.757 303.094 237.897C300.062 237.971 297.015 238.182 294.013 238.241C292.634 238.267 291.286 238.177 289.9 237.989C289.437 237.927 288.984 237.773 288.517 237.738C286.92 237.62 287.037 237.277 286.641 239.37C285.947 243.036 286.539 247.69 286.379 251.491C286.164 256.57 286.067 261.721 286.169 266.808C286.264 271.51 286.192 276.202 286.347 280.913C286.412 282.865 286.568 284.454 286.931 286.315C287.341 288.42 287.813 293.339 288.805 294.79C288.917 294.955 289.748 294.561 289.972 294.973C290.318 295.607 290.266 296.955 290.503 297.365C291.271 298.692 292.837 298.785 293.978 299.375C297.107 300.994 299.979 302.755 302.933 304.947C305.573 306.906 309.817 308.557 311.425 312.45C312.162 314.234 312.278 316.593 312.958 318.435C313.732 320.533 312.207 319.445 314.07 320.284C314.909 320.661 316.238 320.267 317.094 320.26ZM40.255 298.616C40.0566 303.476 38.2414 308.117 37.6341 312.899C37.3499 315.138 36.8555 317.34 36.5184 319.566C36.195 321.702 34.9867 324.238 35.1274 326.347C39.6411 323.925 44.2272 323.289 48.9591 322.608C53.444 321.963 58.1849 321.683 62.6368 321.646C67.1733 321.607 72.0189 320.914 76.6892 320.777C81.5734 320.633 86.5307 320.407 91.3392 319.621C88.8004 316.884 85.6304 314.32 83.7418 310.499C81.6886 306.346 80.5987 301.131 78.7864 296.746C75.1497 287.946 72.7962 277.01 70.8488 267.106C66.9172 247.114 62.5448 227.495 61.3665 206.736C59.4424 208.216 57.9501 213.913 57.003 216.752C55.7942 220.376 55.177 224.299 54.4027 228.147C52.8084 236.073 51.7261 244.286 49.7596 252.14C46.001 267.152 43.6357 283.314 40.255 298.616ZM285.373 180.016C286.281 188.964 288.109 198.02 288.246 207.082C288.277 209.076 288.065 211.292 288.362 213.255C288.678 215.352 289.669 217.2 290.248 219.19C291.168 222.349 293.484 228.822 291.319 231.522C291.255 228.976 289.654 225.755 288.843 223.535C287.62 220.19 286.024 217.135 284.702 213.873C281.934 207.047 278.839 200.37 275.293 194.361C271.84 188.507 267.871 183.322 264.214 177.751C263.115 176.077 254.278 159.953 253.934 160.182C256.755 175.565 261.453 188.931 267.838 201.779C270.969 208.078 274.7 212.209 278.493 217.536C281.652 221.973 287.577 226.696 286.554 234.014C291.432 233.282 296.275 232.135 301.203 232.097C300.321 222.882 299.63 213.812 298.113 204.754C296.391 194.469 295.196 183.871 293.725 173.493C292.224 162.897 289.738 152.648 288.16 142.073C286.648 131.947 285.338 121.837 284.207 111.595C283.383 117.281 283.752 123.517 283.489 129.315C283.22 135.238 283.296 141.049 283.447 147.003C283.727 158.063 284.609 168.985 285.373 180.016ZM306.125 127.113C306.116 122.378 306.7 117.703 306.855 112.978C306.903 111.528 307.802 101.633 306.888 101.124C306.158 103.543 306.007 106.633 305.347 109.171C304.687 111.706 303.797 114.123 303.164 116.676C301.795 122.205 301.356 128.454 301.249 134.322C301.008 147.596 300.933 160.839 301.64 174.106C301.943 179.792 302.185 185.489 302.159 191.189C302.13 197.461 301.522 202.91 302.359 209.124C303.188 215.277 303.726 221.408 304.035 227.655C304.252 232.04 304.323 231.729 307.151 231.399C309.193 231.16 311.259 231.382 313.304 231.228C312.215 214.14 311.925 197.01 310.264 179.992C309.417 171.31 309.328 162.497 308.292 153.848C307.777 149.552 306.937 145.345 306.439 141.044C305.905 136.426 306.114 131.771 306.125 127.113ZM99.0332 117.962C104.488 118.618 110.304 120.982 115.878 119.348C114.953 118.804 112.537 118.062 113.605 115.877C114.69 113.656 116.57 116.448 117.667 116.15C118.344 115.966 119.81 111.764 120.221 110.893C121.154 108.914 121.266 108.569 122.968 108.051C124.617 107.549 124.995 108.075 125.186 105.645C125.404 102.85 124.726 99.7155 124.769 96.8591C124.86 90.7096 126.16 85.3075 127.364 79.5131C122.072 81.2606 116.9 83.3245 111.483 84.4664C109.168 84.9546 105.568 86.0672 103.444 83.7531C102.891 83.1512 102.972 82.3323 102.519 81.6334C101.758 80.4608 100.353 79.2526 99.2846 78.9251C92.7066 76.911 92.1739 90.745 95.5025 95.8941C96.3362 97.1845 97.4871 97.8159 98.3397 98.9975C99.4778 100.573 99.583 102.242 99.7662 104.66C100.11 109.193 99.7263 113.75 98.4496 117.909L99.0332 117.962ZM179.17 182.63C181.112 183.159 183.132 183.019 185.078 183.467C185.769 183.627 187.843 184.186 188.445 183.585C189.364 182.667 189.667 179.324 190.093 177.766C190.843 175.024 191.914 172.629 192.627 169.838C195.541 158.437 198.252 146.992 201.797 135.975C200.401 135.451 199.333 135.438 197.928 135.173C196.465 134.896 195.13 133.629 193.732 133.091C192.403 132.58 191.016 132.724 189.699 132.127C188.973 131.799 188.347 131.061 187.632 130.807C186.493 130.403 185.165 130.172 184.497 131.28C183.813 132.416 183.595 135.52 183.229 136.983C182.255 140.883 181.118 144.649 180.309 148.637C179.578 152.234 178.884 155.792 178.245 159.421C177.569 163.252 176.203 166.416 175.384 170.078C174.761 172.864 174.175 175.713 174.102 178.679C174.031 181.574 173.748 181.761 175.709 182.208C176.699 182.433 178.246 183.289 179.17 182.63ZM307.676 317.089C308.183 317.432 308.658 317.383 309.101 316.939C304.706 314.241 300.422 310.486 295.844 308.648C291.55 306.924 287.373 304.856 283.232 302.724C279.867 300.992 276.844 299.646 273.79 296.574C271.937 294.71 270.287 292.61 269.002 289.874C267.571 286.829 267.224 282.481 265.68 279.74C263.649 283.095 261.253 285.642 258.84 288.314C258.006 289.238 256.002 291.255 255.725 292.678C255.376 294.473 256.362 296.18 256.858 297.99C258.127 302.626 258.765 307.264 259.472 312.088C259.755 314.022 260.356 316.927 261.438 317.73C262.423 318.46 265.255 317.901 266.473 317.755C272.825 316.994 279.065 316.216 285.466 316.815C292.71 317.492 300.463 317.939 307.676 317.089ZM319.706 230.91C320.862 230.907 321.989 230.685 323.14 230.676C322.44 226.094 323.948 220.146 324.463 215.563C325.039 210.436 325.468 205.136 325.838 199.97C326.62 189.088 326.929 178.342 326.855 167.388C326.784 156.788 328.014 147.091 329.763 136.887C331.641 125.928 334.78 116.061 337.356 105.486C334.458 107.788 332.885 113.132 331.385 117.221C329.488 122.39 328.242 128.107 327.496 133.899C326.057 145.073 324.47 156.282 322.796 167.439C321.053 179.057 320.066 190.775 318.056 202.299C317.075 207.92 315.736 214.835 315.703 220.623C315.69 223.017 315.241 228.035 315.991 230.109C316.692 232.049 318.203 231.12 319.706 230.91ZM145.172 217.868C145.12 219.06 145.071 220.194 144.937 221.372C146.538 221.338 148.546 218.867 149.91 217.754C151.572 216.398 153.235 214.904 154.86 213.542C157.997 210.911 161.568 209.166 164.923 206.999C168.777 204.51 172.314 201.51 175.994 198.52C177.28 197.476 186.532 191.446 186.363 189.819C184.321 189.734 182.279 189.65 180.237 189.566C178.486 189.493 175.78 190.099 174.098 189.312C173.177 188.881 172.133 187.276 171.777 186.015C171.425 184.767 172.151 179.011 171.7 178.648C169.442 182.114 168.041 186.708 166.027 190.444C163.802 194.573 160.904 196.997 157.706 199.207C154.175 201.647 150.515 203.544 146.903 205.641C145.38 206.524 145.414 207.023 145.3 209.504C145.173 212.277 145.211 215.089 145.172 217.868ZM330.454 320.721C334.307 321.302 338.248 320.923 342.13 321.369C343.543 321.531 345.501 321.774 344.103 324.585C343.223 326.356 340.354 325.812 339.056 325.945C335.571 326.3 331.877 326.152 328.381 326.103C327.644 326.093 326.829 325.776 326.085 325.854C325.227 325.944 324.206 326.865 323.423 326.865C322.941 326.864 322.762 326.113 322.346 326.047C321.438 325.904 320.532 325.801 319.618 325.809C305.801 325.92 292.171 325.615 278.388 325.701C271.797 325.741 265.1 325.625 258.509 325.219C257.124 325.133 249.249 325.613 249.439 321.929C249.536 320.032 252.106 319.744 253.042 319.536C253.737 319.381 254.458 319.399 255.154 319.338C257.004 319.177 257.82 319.829 257.406 316.839C255.837 305.495 253.111 296.131 247.378 288.01C242.69 281.37 237.06 275.358 231.766 269.823C225.338 263.103 220.11 256.024 216.244 245.695C213.987 239.663 212.088 233.492 210.9 226.813C210.473 224.41 210.442 221.673 209.923 219.357C209.524 217.574 208.636 216.331 208.105 214.485C201.883 230.198 193.577 243.368 185.978 257.551C182.347 264.326 178.195 270.767 173.839 276.671C172.547 278.423 171.342 280.252 170.138 282.135C169.131 283.712 167.523 285.119 166.675 286.867C165.862 288.543 166.065 288.461 167.332 289.778C169.008 291.517 170.85 292.959 172.551 294.655C175.271 297.365 178.233 299.651 180.671 302.919C183.308 306.454 185.619 310.555 187.931 314.546C189.471 317.207 191.492 320.62 191.901 323.996C192.036 325.112 192.538 327.873 191.91 328.697C191.373 329.401 191.426 329.135 190.749 328.713C189.863 328.161 189.593 326.88 188.511 326.277C185.742 324.734 182.41 325.297 179.541 325.3C176.671 325.304 173.781 325.803 170.912 325.807C164.361 325.819 157.956 326.652 151.411 327.124C144.46 327.625 137.411 326.607 130.48 326.813C125.345 326.965 120.068 326.439 114.793 326.902C112.08 327.139 109.41 326.658 106.763 326.622C103.296 326.575 99.7427 327.3 96.2481 327.426C90.5123 327.635 84.8453 327.678 79.0748 327.926C66.6625 328.462 54.3174 329.012 41.8966 329.399C40.2398 329.45 38.425 329.381 36.7896 329.67C35.0538 329.977 35.9553 330.516 34.7699 331.45C31.4514 334.065 32.1478 324.461 32.2132 322.573C32.5638 312.454 34.2239 302.519 36.2369 292.9C38.1466 283.776 39.6804 274.23 41.2854 264.912C43.0423 254.713 45.3585 244.927 47.4524 234.825C49.598 224.474 51.3268 213.724 55.2982 204.532C56.2028 202.439 57.1369 200.186 58.6079 198.86C60.2569 197.372 60.335 198.233 60.3127 195.534C60.292 192.993 60.3714 189.596 59.9469 187.174C59.5632 184.986 59.6299 186.284 58.7921 184.717C58.1103 183.442 57.4006 182.573 56.9064 181.022C53.9798 185.484 47.1834 183.194 44.2977 180.02C40.7656 176.135 38.0472 169.556 37.021 163.278C36.1969 158.236 37.0853 148.607 40.8456 146.151C42.6786 144.953 49.4383 144.006 49.6791 140.147C49.8032 138.156 47.4 135.375 46.8372 133.667C45.7942 130.504 44.7834 126.293 44.4734 122.819C43.8679 116.039 45.8926 108.435 49.1762 103.826C55.1997 95.3708 65.8796 90.9726 73.7532 96.2463C72.0255 86.9123 70.9638 78.8567 71.7218 69.1274C72.3748 60.7456 75.6814 56.0333 80.249 51.8253C88.0435 44.6439 98.6963 41.7505 107.688 43.7512C109.731 44.2061 111.696 45.2002 113.591 45.9886C116.344 47.134 119.625 46.7199 122.23 48.5953C124.119 49.9547 125.567 52.6808 127.231 54.4955C129.173 56.6141 130.798 59.786 132.159 62.7205C135.07 68.9957 134.042 80.6921 131.696 87.032C131.193 88.3919 130.568 89.5381 129.725 90.47C128.848 91.4398 127.501 91.7498 127.055 93.0022C125.912 96.2103 127.093 103.127 127.275 106.584C127.488 110.597 126.138 113.623 123.061 113.967C121.281 114.167 121.212 112.639 120.384 115.79C119.847 117.832 119.362 120.056 118.579 121.93C116.964 125.793 113.948 125.441 111.203 125.358C108.025 125.261 104.891 124.544 101.709 124.1C102.579 128.07 104.901 131.138 106.363 134.669C108.341 139.445 109.539 143.407 109.898 148.987C110.173 153.273 109.677 156.664 107.717 159.871C106.905 161.199 106.178 161.269 106.393 162.792C106.525 163.721 107.624 165.246 108.015 165.985C109.048 167.94 110.244 169.732 111.156 171.822C114.667 179.861 115.781 192.149 115.862 201.538C115.866 201.969 116.028 202.883 115.903 203.329C115.811 203.659 115.095 204.706 115.085 204.796C114.953 206.004 115.765 208.067 117.016 208.262C118.33 208.467 120.721 206.829 121.938 206.288C123.884 205.421 125.871 204.777 127.813 203.888C130.95 202.451 134.074 201.301 137.266 200.169C138.708 199.659 140.159 199.231 141.606 198.752C143.255 198.208 144.014 197.174 144.887 199.653C145.635 201.78 145.183 202.17 146.947 201.082C148.699 200 150.408 198.663 152.117 197.444C155.131 195.296 158.725 193.373 161.315 190.215C165.635 184.947 167.185 176.599 171.316 171.012C172.466 169.457 173.159 169.424 173.877 167.276C174.646 164.977 175.029 162.034 175.423 159.564C176.114 155.239 176.595 150.901 177.219 146.581C177.995 141.2 179.726 136.318 180.977 131.18C181.464 129.179 181.705 126.637 182.502 124.836C182.713 124.358 183.122 124.087 183.286 123.691C183.853 122.334 183.844 121.963 183.981 120.335C184.621 112.726 187.722 116.702 191.09 118.42C192.509 119.143 199.258 123.855 196.72 127.043C199.785 128.33 204.672 127.58 204.681 134.053C204.686 137.369 203.372 140.927 202.676 144.037C202.058 146.798 201.461 149.57 200.832 152.327C199.456 158.366 197.774 164.227 196.432 170.285C195.821 173.045 195.32 175.87 194.459 178.477C193.699 180.778 191.837 183.321 191.546 185.832C199.647 180.635 207.121 173.153 216.237 173.555C220.229 173.731 223.869 176.182 226.113 181.351C228.926 187.831 230.801 195.095 233.552 201.635C243.56 225.425 255.445 247.016 266.406 269.811C267.248 271.563 268.326 273.217 268.631 275.388C268.829 276.804 268.476 278.224 268.712 279.584C269.2 282.411 271.585 285.926 273.196 287.54C276.283 290.633 281.298 294.992 285.118 294.573C282.652 286.067 282.612 276.727 282.653 267.633C282.692 258.995 283.257 250.423 283.94 241.868C284.094 239.933 284.228 238.139 284.59 236.262C285.004 234.108 285.598 234.307 284.291 232.384C282.279 229.423 279.894 226.992 277.865 223.993C273.478 217.51 268.993 212.436 265.519 204.68C262.216 197.302 258.732 189.712 256.266 181.625C253.727 173.299 252.669 164.395 251.373 155.567C250.847 151.984 248.998 147.995 249.334 144.247C249.759 139.511 251.27 142.945 251.894 145.488C253.799 153.248 258.171 160.174 261.797 166.399C265.714 173.124 270.484 178.739 274.568 185.266C279.016 192.375 282.089 200.56 286.054 208.155C285.98 198.692 283.72 189.074 282.753 179.719C281.903 171.486 281.592 163.223 281.03 154.952C279.755 136.163 280.581 116.804 282.02 98.1289C282.705 89.2595 282.21 80.608 282.164 71.714C282.149 68.8834 281.306 62.3659 282.297 59.8462C284.194 55.0201 285.404 65.5313 285.514 67.0991C286.171 76.438 285.194 85.6855 285.802 94.9848C286.438 104.696 287.727 114.129 288.835 123.724C290.037 134.113 291.94 144.262 293.765 154.447C295.682 165.14 297.309 176.06 299.43 186.666C299.954 183.323 299.151 179.227 298.972 175.828C298.717 170.963 298.254 166.099 298.179 161.22C298.06 153.445 297.958 145.525 298.195 137.783C298.429 130.152 298.278 122.158 299.804 114.796C300.528 111.302 301.603 107.89 302.656 104.596C303.954 100.534 304.394 96.6011 305.096 92.2858C305.699 88.5902 306.594 84.9895 306.985 81.2217C307.228 78.8784 307.903 71.9614 309.757 77.1836C310.833 80.2146 310.413 84.7237 310.468 87.9886C310.538 92.1742 310.137 96.2476 310.102 100.416C310.037 108.596 310.007 116.765 309.658 124.933C309.292 133.502 309.729 141.176 310.897 149.607C312.175 158.837 312.6 168.093 313.298 177.44C313.658 182.266 314.239 187.064 314.539 191.897C314.698 194.457 314.043 201.805 315.298 203.619C315.383 199.183 316.209 194.737 316.827 190.41C317.559 185.284 317.829 179.9 318.358 174.702C319.214 166.281 320.939 158.232 322.058 149.903C324.363 132.735 326.218 110.677 336.35 99.3728C337.675 97.8936 339.136 96.7981 340.572 95.5781C341.385 94.8875 342.587 93.1077 343.521 92.7915C344.541 92.4463 344.969 92.705 345.397 94.4545C345.993 96.8935 344.946 98.043 343.973 99.8254C340.608 105.993 339.211 113.876 337.16 121.095C332.462 137.624 330.462 155.036 330.576 172.862C330.635 182.195 330.27 191.199 329.669 200.48C329.022 210.468 328.15 221.033 326.173 230.652C328.236 231.318 330.46 230.284 331.046 233.815C331.19 234.683 330.95 235.711 331.111 236.841C331.267 237.938 331.63 239.029 331.848 240.108C332.299 242.34 332.546 244.543 332.775 246.837C333.659 255.701 335.125 264.127 335.344 273.12C335.546 281.432 334.51 289.864 333.559 298.025C332.601 306.246 329.725 313.269 327.475 320.714C328.468 320.707 329.461 320.714 330.454 320.721Z" fill="black"/>
<path fill-rule="evenodd" clip-rule="evenodd" d="M42.7774 145.513C42.4411 146.183 41.9723 145.73 41.567 145.814C41.9709 145.714 42.3742 145.614 42.7774 145.513Z" fill="black"/>
<path fill-rule="evenodd" clip-rule="evenodd" d="M66.9597 94.1794C66.526 94.1955 66.0924 94.2116 65.6587 94.2277C66.0849 93.8509 66.5165 93.7395 66.9597 94.1794Z" fill="black"/>
<path fill-rule="evenodd" clip-rule="evenodd" d="M93.6849 44.5927C93.2441 44.6754 92.8034 44.758 92.3629 44.8401C92.8037 44.7575 93.2441 44.6754 93.6849 44.5927Z" fill="black"/>
<path fill-rule="evenodd" clip-rule="evenodd" d="M62.1914 94.665C61.739 94.7369 61.2866 94.8089 60.8345 94.8808C61.2869 94.8089 61.7393 94.7369 62.1914 94.665Z" fill="black"/>
<path fill-rule="evenodd" clip-rule="evenodd" d="M104.786 43.1849C104.383 43.188 103.981 43.1917 103.579 43.1948C103.979 42.783 104.381 42.7902 104.786 43.1849Z" fill="black"/>
<path fill-rule="evenodd" clip-rule="evenodd" d="M99.0332 117.96C99.7484 118.047 100.464 118.133 101.178 118.218C100.463 118.132 99.7481 118.046 99.0332 117.96Z" fill="black"/>
<path fill-rule="evenodd" clip-rule="evenodd" d="M124.771 99.128C124.77 98.3689 124.77 97.6098 124.769 96.8536C124.77 97.6137 124.771 98.3709 124.771 99.128Z" fill="black"/>
<path fill-rule="evenodd" clip-rule="evenodd" d="M113.338 119.701C113.831 119.336 114.33 119.272 114.838 119.65C114.337 119.667 113.838 119.685 113.338 119.701Z" fill="black"/>
<path fill-rule="evenodd" clip-rule="evenodd" d="M67.7344 145.163C67.6975 145.691 67.6606 146.221 67.624 146.746C67.6609 146.217 67.6975 145.69 67.7344 145.163Z" fill="black"/>
<path fill-rule="evenodd" clip-rule="evenodd" d="M74.9964 137.561C75.0235 138.112 75.0509 138.664 75.079 139.212C75.0519 138.659 75.0241 138.11 74.9964 137.561Z" fill="black"/>
<path fill-rule="evenodd" clip-rule="evenodd" d="M103.259 118.89C103.682 118.969 104.105 119.047 104.528 119.125C104.105 119.047 103.682 118.969 103.259 118.89Z" fill="black"/>
<path fill-rule="evenodd" clip-rule="evenodd" d="M77.3441 154.631C80.3924 154.083 83.2622 161.472 79.4972 161.261C76.7566 161.107 73.0225 154.664 77.3441 154.631Z" fill="black"/>
<path fill-rule="evenodd" clip-rule="evenodd" d="M83.5764 146.444C83.5868 143.36 87.5859 142.072 87.9036 145.178C88.1909 147.984 83.5615 151.008 83.5764 146.444Z" fill="black"/>
<path fill-rule="evenodd" clip-rule="evenodd" d="M97.3734 92.9124C95.7886 92.3117 95.4669 89.0314 95.7051 87.0132C95.9856 86.0393 96.266 85.0659 96.5464 84.0919C96.4309 83.7335 96.3157 83.3752 96.2005 83.0168C96.3295 81.0146 95.9534 80.1479 97.5153 80.9463C100.417 82.4302 100.959 92.7301 97.3734 92.9124Z" fill="black"/>
<path fill-rule="evenodd" clip-rule="evenodd" d="M120.713 86.3843C122.014 86.2227 124.395 88.4454 123.116 90.6236C122.324 91.973 119.674 91.3582 118.597 91.6471C117.168 92.0302 115.68 92.5506 116.429 89.3753C117.018 86.8818 119.185 86.3311 120.713 86.3843Z" fill="black"/>
<path fill-rule="evenodd" clip-rule="evenodd" d="M119.459 101.301C118.125 99.7441 118.66 92.5999 120.682 93.8688C122.762 95.1749 120.554 100.262 119.459 101.301Z" fill="black"/>
<path fill-rule="evenodd" clip-rule="evenodd" d="M95.7049 87.0135C95.7108 87.7648 95.7163 88.5165 95.7211 89.2644C95.4395 88.5138 95.4423 87.7644 95.7049 87.0135Z" fill="black"/>
<path fill-rule="evenodd" clip-rule="evenodd" d="M97.3734 92.9135C97.6427 92.9 97.9124 92.8859 98.1785 92.8734C97.9078 92.8884 97.6408 92.901 97.3734 92.9135Z" fill="black"/>
</g>
</svg>
