<svg width="196" height="29" viewBox="0 0 196 29" fill="none" xmlns="http://www.w3.org/2000/svg">
<path d="M8.848 23.392C7.26133 23.392 5.72133 23.196 4.228 22.804C2.73467 22.412 1.52133 21.8893 0.588 21.236L2.408 17.148C3.28533 17.7267 4.30267 18.1933 5.46 18.548C6.61733 18.9027 7.756 19.08 8.876 19.08C11.004 19.08 12.068 18.548 12.068 17.484C12.068 16.924 11.76 16.5133 11.144 16.252C10.5467 15.972 9.576 15.6827 8.232 15.384C6.75733 15.0667 5.52533 14.7307 4.536 14.376C3.54667 14.0027 2.69733 13.4147 1.988 12.612C1.27867 11.8093 0.924 10.7267 0.924 9.364C0.924 8.16933 1.25067 7.096 1.904 6.144C2.55733 5.17333 3.528 4.408 4.816 3.848C6.12267 3.288 7.71867 3.008 9.604 3.008C10.892 3.008 12.1613 3.15733 13.412 3.456C14.6627 3.736 15.764 4.156 16.716 4.716L15.008 8.832C13.1413 7.824 11.3307 7.32 9.576 7.32C8.47467 7.32 7.672 7.488 7.168 7.824C6.664 8.14133 6.412 8.56133 6.412 9.084C6.412 9.60667 6.71067 9.99867 7.308 10.26C7.90533 10.5213 8.86667 10.792 10.192 11.072C11.6853 11.3893 12.9173 11.7347 13.888 12.108C14.8773 12.4627 15.7267 13.0413 16.436 13.844C17.164 14.628 17.528 15.7013 17.528 17.064C17.528 18.24 17.2013 19.304 16.548 20.256C15.8947 21.208 14.9147 21.9733 13.608 22.552C12.3013 23.112 10.7147 23.392 8.848 23.392ZM30.3089 22.384C29.8609 22.664 29.3102 22.8787 28.6569 23.028C28.0222 23.1773 27.3409 23.252 26.6129 23.252C24.6342 23.252 23.1129 22.7667 22.0489 21.796C20.9849 20.8253 20.4529 19.3787 20.4529 17.456V12.36H18.2409V8.384H20.4529V4.436H25.7729V8.384H29.2449V12.36H25.7729V17.4C25.7729 17.9413 25.9129 18.3707 26.1929 18.688C26.4916 18.9867 26.8836 19.136 27.3689 19.136C27.9849 19.136 28.5262 18.9773 28.9929 18.66L30.3089 22.384ZM38.8283 7.572C41.3483 7.572 43.271 8.15067 44.5963 9.308C45.9217 10.4467 46.5843 12.2013 46.5843 14.572V23H41.6283V21.04C40.863 22.5147 39.3697 23.252 37.1483 23.252C35.9723 23.252 34.955 23.0467 34.0963 22.636C33.2377 22.2253 32.5843 21.6747 32.1363 20.984C31.707 20.2747 31.4923 19.472 31.4923 18.576C31.4923 17.1387 32.043 16.028 33.1443 15.244C34.2457 14.4413 35.9443 14.04 38.2403 14.04H41.2643C41.171 12.4347 40.0977 11.632 38.0443 11.632C37.3163 11.632 36.579 11.7533 35.8323 11.996C35.0857 12.22 34.451 12.5373 33.9283 12.948L32.1363 9.336C32.9763 8.776 33.9937 8.34667 35.1883 8.048C36.4017 7.73067 37.615 7.572 38.8283 7.572ZM38.6323 19.892C39.2483 19.892 39.7897 19.7427 40.2563 19.444C40.723 19.1453 41.059 18.7067 41.2643 18.128V16.812H38.9683C37.419 16.812 36.6443 17.3253 36.6443 18.352C36.6443 18.8187 36.8217 19.192 37.1763 19.472C37.531 19.752 38.0163 19.892 38.6323 19.892ZM55.0104 9.644C55.5517 8.95333 56.2517 8.44 57.1104 8.104C57.9877 7.74933 58.9864 7.572 60.1064 7.572V12.36C59.621 12.304 59.2197 12.276 58.9024 12.276C57.7637 12.276 56.8677 12.584 56.2144 13.2C55.5797 13.816 55.2624 14.7587 55.2624 16.028V23H49.9424V7.824H55.0104V9.644ZM73.2386 22.384C72.7906 22.664 72.2399 22.8787 71.5866 23.028C70.9519 23.1773 70.2706 23.252 69.5426 23.252C67.5639 23.252 66.0426 22.7667 64.9786 21.796C63.9146 20.8253 63.3826 19.3787 63.3826 17.456V12.36H61.1706V8.384H63.3826V4.436H68.7026V8.384H72.1746V12.36H68.7026V17.4C68.7026 17.9413 68.8426 18.3707 69.1226 18.688C69.4213 18.9867 69.8133 19.136 70.2986 19.136C70.9146 19.136 71.4559 18.9773 71.9226 18.66L73.2386 22.384ZM85.314 23.392C83.2607 23.392 81.4127 22.9627 79.77 22.104C78.146 21.2267 76.8674 20.0133 75.934 18.464C75.0007 16.9147 74.534 15.16 74.534 13.2C74.534 11.24 75.0007 9.48533 75.934 7.936C76.8674 6.38667 78.146 5.18267 79.77 4.324C81.4127 3.44667 83.2607 3.008 85.314 3.008C87.106 3.008 88.7207 3.32533 90.158 3.96C91.5954 4.59467 92.79 5.50933 93.742 6.704L90.214 9.896C88.9447 8.36533 87.4047 7.6 85.594 7.6C84.53 7.6 83.578 7.83333 82.738 8.3C81.9167 8.76667 81.2727 9.42933 80.806 10.288C80.358 11.128 80.134 12.0987 80.134 13.2C80.134 14.3013 80.358 15.2813 80.806 16.14C81.2727 16.98 81.9167 17.6333 82.738 18.1C83.578 18.5667 84.53 18.8 85.594 18.8C87.4047 18.8 88.9447 18.0347 90.214 16.504L93.742 19.696C92.79 20.8907 91.5954 21.8053 90.158 22.44C88.7207 23.0747 87.106 23.392 85.314 23.392ZM103.113 23.252C101.489 23.252 100.024 22.916 98.7171 22.244C97.4104 21.572 96.3837 20.6387 95.6371 19.444C94.9091 18.2493 94.5451 16.896 94.5451 15.384C94.5451 13.8907 94.9091 12.5467 95.6371 11.352C96.3837 10.1573 97.4011 9.23333 98.6891 8.58C99.9957 7.908 101.47 7.572 103.113 7.572C104.756 7.572 106.23 7.908 107.537 8.58C108.844 9.23333 109.861 10.1573 110.589 11.352C111.317 12.528 111.681 13.872 111.681 15.384C111.681 16.896 111.317 18.2493 110.589 19.444C109.861 20.6387 108.844 21.572 107.537 22.244C106.23 22.916 104.756 23.252 103.113 23.252ZM103.113 19.024C104.046 19.024 104.812 18.7067 105.409 18.072C106.006 17.4187 106.305 16.5227 106.305 15.384C106.305 14.264 106.006 13.3867 105.409 12.752C104.812 12.1173 104.046 11.8 103.113 11.8C102.18 11.8 101.414 12.1173 100.817 12.752C100.22 13.3867 99.9211 14.264 99.9211 15.384C99.9211 16.5227 100.22 17.4187 100.817 18.072C101.414 18.7067 102.18 19.024 103.113 19.024ZM130.274 2.224V23H125.206V21.488C124.216 22.664 122.732 23.252 120.754 23.252C119.372 23.252 118.112 22.9347 116.974 22.3C115.835 21.6467 114.93 20.7227 114.258 19.528C113.604 18.3333 113.278 16.952 113.278 15.384C113.278 13.816 113.604 12.444 114.258 11.268C114.93 10.0733 115.835 9.15867 116.974 8.524C118.112 7.88933 119.372 7.572 120.754 7.572C122.564 7.572 123.964 8.09467 124.954 9.14V2.224H130.274ZM121.874 19.024C122.788 19.024 123.544 18.7067 124.142 18.072C124.739 17.4187 125.038 16.5227 125.038 15.384C125.038 14.264 124.739 13.3867 124.142 12.752C123.563 12.1173 122.807 11.8 121.874 11.8C120.94 11.8 120.175 12.1173 119.578 12.752C118.98 13.3867 118.682 14.264 118.682 15.384C118.682 16.5227 118.98 17.4187 119.578 18.072C120.175 18.7067 120.94 19.024 121.874 19.024ZM133.696 7.824H139.016V23H133.696V7.824ZM136.356 6.144C135.386 6.144 134.602 5.87333 134.004 5.332C133.407 4.79067 133.108 4.11867 133.108 3.316C133.108 2.51333 133.407 1.84133 134.004 1.3C134.602 0.758666 135.386 0.487999 136.356 0.487999C137.327 0.487999 138.111 0.749333 138.708 1.272C139.306 1.776 139.604 2.42933 139.604 3.232C139.604 4.072 139.306 4.772 138.708 5.332C138.111 5.87333 137.327 6.144 136.356 6.144ZM152.358 7.572C154.243 7.572 155.755 8.132 156.894 9.252C158.051 10.372 158.63 12.0613 158.63 14.32V23H153.31V15.188C153.31 13.116 152.479 12.08 150.818 12.08C149.903 12.08 149.166 12.3787 148.606 12.976C148.064 13.5733 147.794 14.4693 147.794 15.664V23H142.474V7.824H147.542V9.476C148.139 8.86 148.848 8.39333 149.67 8.076C150.491 7.74 151.387 7.572 152.358 7.572ZM178.512 7.824V20.228C178.512 23.0467 177.747 25.156 176.216 26.556C174.686 27.9747 172.483 28.684 169.608 28.684C168.115 28.684 166.715 28.516 165.408 28.18C164.102 27.844 162.991 27.3493 162.076 26.696L164.008 22.972C164.624 23.476 165.399 23.868 166.332 24.148C167.284 24.4467 168.218 24.596 169.132 24.596C170.532 24.596 171.559 24.288 172.212 23.672C172.866 23.056 173.192 22.1413 173.192 20.928V20.424C172.166 21.6187 170.663 22.216 168.684 22.216C167.34 22.216 166.099 21.9173 164.96 21.32C163.822 20.704 162.916 19.8453 162.244 18.744C161.572 17.624 161.236 16.336 161.236 14.88C161.236 13.4427 161.572 12.1733 162.244 11.072C162.916 9.952 163.822 9.09333 164.96 8.496C166.099 7.88 167.34 7.572 168.684 7.572C170.85 7.572 172.436 8.272 173.444 9.672V7.824H178.512ZM169.944 17.988C170.896 17.988 171.68 17.6987 172.296 17.12C172.931 16.5413 173.248 15.7947 173.248 14.88C173.248 13.9653 172.94 13.228 172.324 12.668C171.708 12.0893 170.915 11.8 169.944 11.8C168.974 11.8 168.171 12.0893 167.536 12.668C166.92 13.228 166.612 13.9653 166.612 14.88C166.612 15.7947 166.93 16.5413 167.564 17.12C168.199 17.6987 168.992 17.988 169.944 17.988Z" fill="black"/>
<path d="M192.319 13.872C191.423 13.872 190.667 13.5733 190.051 12.976C189.435 12.3787 189.127 11.6227 189.127 10.708C189.127 9.77467 189.426 9.01867 190.023 8.44C190.639 7.86133 191.404 7.572 192.319 7.572C193.252 7.572 194.018 7.86133 194.615 8.44C195.212 9.01867 195.511 9.77467 195.511 10.708C195.511 11.6227 195.203 12.3787 194.587 12.976C193.99 13.5733 193.234 13.872 192.319 13.872ZM192.347 16.952C193.262 16.952 194.018 17.2413 194.615 17.82C195.212 18.3987 195.511 19.1547 195.511 20.088C195.511 20.5173 195.455 20.9467 195.343 21.376C195.231 21.8053 194.979 22.4493 194.587 23.308L192.823 27.396H189.491L190.807 22.832C190.284 22.5893 189.874 22.2347 189.575 21.768C189.295 21.2827 189.155 20.7227 189.155 20.088C189.155 19.1547 189.454 18.3987 190.051 17.82C190.648 17.2413 191.414 16.952 192.347 16.952Z" fill="#079911"/>
</svg>
