<svg width="235" height="37" viewBox="0 0 235 37" fill="none" xmlns="http://www.w3.org/2000/svg">
<path d="M23.5 0L28.7761 12.7832H45.8498L32.0369 20.6836L37.313 33.4668L23.5 25.5664L9.68705 33.4668L14.9631 20.6836L1.15017 12.7832H18.2239L23.5 0Z" fill="#F1B210"/>
<path d="M70.5 0L75.7761 12.7832H92.8498L79.0369 20.6836L84.313 33.4668L70.5 25.5664L56.687 33.4668L61.9631 20.6836L48.1502 12.7832H65.2239L70.5 0Z" fill="#F1B210"/>
<path d="M117.5 0L122.776 12.7832H139.85L126.037 20.6836L131.313 33.4668L117.5 25.5664L103.687 33.4668L108.963 20.6836L95.1502 12.7832H112.224L117.5 0Z" fill="#F1B210"/>
<path d="M164.5 0L169.776 12.7832H186.85L173.037 20.6836L178.313 33.4668L164.5 25.5664L150.687 33.4668L155.963 20.6836L142.15 12.7832H159.224L164.5 0Z" fill="#F1B210"/>
<path d="M211.5 0L216.776 12.7832H233.85L220.037 20.6836L225.313 33.4668L211.5 25.5664L197.687 33.4668L202.963 20.6836L189.15 12.7832H206.224L211.5 0Z" fill="#F1B210"/>
</svg>
